<mxfile host="65bd71144e">
    <diagram id="t7Rv8EtEnfFgDJbUtH6x" name="D$ Top">
        <mxGraphModel dx="5587" dy="3294" grid="1" gridSize="10" guides="1" tooltips="1" connect="1" arrows="1" fold="1" page="1" pageScale="1" pageWidth="850" pageHeight="1100" background="#282c34" math="0" shadow="0">
            <root>
                <mxCell id="0"/>
                <mxCell id="1" parent="0"/>
                <mxCell id="115" value="" style="rounded=0;whiteSpace=wrap;html=1;labelBackgroundColor=#282C34;strokeColor=#e05561;fontSize=17;fillColor=#21252B;" parent="1" vertex="1">
                    <mxGeometry x="-1550" y="-470" width="780" height="720" as="geometry"/>
                </mxCell>
                <mxCell id="CXK2tgCCdedAt3tNoSaW-143" value="" style="rounded=0;whiteSpace=wrap;html=1;labelBackgroundColor=#282C34;strokeColor=#e05561;fontSize=17;fillColor=#21252B;" parent="1" vertex="1">
                    <mxGeometry x="-1010" y="-240" width="220" height="370" as="geometry"/>
                </mxCell>
                <mxCell id="109" value="&lt;font style=&quot;font-size: 17px;&quot;&gt;MSHRs&lt;/font&gt;" style="swimlane;whiteSpace=wrap;html=1;rounded=0;labelBackgroundColor=#282C34;strokeColor=#e05561;fontSize=20;fillColor=#21252B;startSize=30;" parent="1" vertex="1">
                    <mxGeometry x="-1000" y="-440" width="200" height="180" as="geometry">
                        <mxRectangle x="-1600" y="-1000" width="100" height="40" as="alternateBounds"/>
                    </mxGeometry>
                </mxCell>
                <mxCell id="110" value="" style="rounded=0;whiteSpace=wrap;html=1;labelBackgroundColor=#282C34;strokeColor=#e05561;fontSize=17;fillColor=#21252B;" parent="109" vertex="1">
                    <mxGeometry y="30" width="200" height="30" as="geometry"/>
                </mxCell>
                <mxCell id="111" value="" style="rounded=0;whiteSpace=wrap;html=1;labelBackgroundColor=#282C34;strokeColor=#e05561;fontSize=17;fillColor=#21252B;" parent="109" vertex="1">
                    <mxGeometry y="60" width="200" height="30" as="geometry"/>
                </mxCell>
                <mxCell id="112" value="" style="rounded=0;whiteSpace=wrap;html=1;labelBackgroundColor=#282C34;strokeColor=#e05561;fontSize=17;fillColor=#21252B;" parent="109" vertex="1">
                    <mxGeometry y="90" width="200" height="30" as="geometry"/>
                </mxCell>
                <mxCell id="113" value="" style="rounded=0;whiteSpace=wrap;html=1;labelBackgroundColor=#282C34;strokeColor=#e05561;fontSize=17;fillColor=#21252B;" parent="109" vertex="1">
                    <mxGeometry y="120" width="200" height="30" as="geometry"/>
                </mxCell>
                <mxCell id="114" value="" style="rounded=0;whiteSpace=wrap;html=1;labelBackgroundColor=#282C34;strokeColor=#e05561;fontSize=17;fillColor=#21252B;" parent="109" vertex="1">
                    <mxGeometry y="150" width="200" height="30" as="geometry"/>
                </mxCell>
                <mxCell id="116" value="PLRU Mem" style="rounded=0;whiteSpace=wrap;html=1;labelBackgroundColor=#282C34;strokeColor=#e05561;fontSize=17;fillColor=#21252B;" parent="1" vertex="1">
                    <mxGeometry x="-1520" y="-40" width="120" height="150" as="geometry"/>
                </mxCell>
                <mxCell id="117" value="Valid Mem" style="rounded=0;whiteSpace=wrap;html=1;labelBackgroundColor=#282C34;strokeColor=#e05561;fontSize=17;fillColor=#21252B;" parent="1" vertex="1">
                    <mxGeometry x="-1520" y="-240" width="120" height="160" as="geometry"/>
                </mxCell>
                <mxCell id="118" value="Tag Mem" style="rounded=0;whiteSpace=wrap;html=1;labelBackgroundColor=#282C34;strokeColor=#e05561;fontSize=17;fillColor=#21252B;" parent="1" vertex="1">
                    <mxGeometry x="-1520" y="-440" width="120" height="160" as="geometry"/>
                </mxCell>
                <mxCell id="119" value="DMem" style="rounded=0;whiteSpace=wrap;html=1;labelBackgroundColor=#282C34;strokeColor=#e05561;fontSize=17;fillColor=#21252B;" parent="1" vertex="1">
                    <mxGeometry x="-1360" y="-440" width="320" height="550" as="geometry"/>
                </mxCell>
                <mxCell id="120" value="Data FMT" style="rounded=0;whiteSpace=wrap;html=1;labelBackgroundColor=#282C34;strokeColor=#e05561;fontSize=17;fillColor=#21252B;" parent="1" vertex="1">
                    <mxGeometry x="-1360" y="160" width="320" height="60" as="geometry"/>
                </mxCell>
                <mxCell id="121" value="Decoder" style="rounded=0;whiteSpace=wrap;html=1;labelBackgroundColor=#282C34;strokeColor=#e05561;fontSize=17;fillColor=#21252B;" parent="1" vertex="1">
                    <mxGeometry x="-1520" y="130" width="120" height="90" as="geometry"/>
                </mxCell>
                <mxCell id="122" value="Line Fill Buffer" style="rounded=0;whiteSpace=wrap;html=1;labelBackgroundColor=#282C34;strokeColor=#e05561;fontSize=17;fillColor=#21252B;" parent="1" vertex="1">
                    <mxGeometry x="-1000" y="-230" width="200" height="80" as="geometry"/>
                </mxCell>
                <mxCell id="123" value="Eviction Queue" style="rounded=0;whiteSpace=wrap;html=1;labelBackgroundColor=#282C34;strokeColor=#e05561;fontSize=17;fillColor=#21252B;" parent="1" vertex="1">
                    <mxGeometry x="-1000" y="-120" width="200" height="80" as="geometry"/>
                </mxCell>
                <mxCell id="124" value="AXI4 Node" style="rounded=0;whiteSpace=wrap;html=1;labelBackgroundColor=#282C34;strokeColor=#e05561;fontSize=17;fillColor=#21252B;" parent="1" vertex="1">
                    <mxGeometry x="-1000" width="200" height="120" as="geometry"/>
                </mxCell>
                <mxCell id="125" value="" style="shape=flexArrow;endArrow=classic;html=1;labelBackgroundColor=#282C34;strokeColor=#a5e075;fontSize=17;" parent="1" edge="1">
                    <mxGeometry width="50" height="50" relative="1" as="geometry">
                        <mxPoint x="-1750" y="174.5" as="sourcePoint"/>
                        <mxPoint x="-1550" y="174.5" as="targetPoint"/>
                    </mxGeometry>
                </mxCell>
                <mxCell id="126" value="" style="shape=flexArrow;endArrow=classic;html=1;labelBackgroundColor=#282C34;strokeColor=#a5e075;fontSize=17;" parent="1" edge="1">
                    <mxGeometry width="50" height="50" relative="1" as="geometry">
                        <mxPoint x="-770" y="39.5" as="sourcePoint"/>
                        <mxPoint x="-550" y="39.5" as="targetPoint"/>
                    </mxGeometry>
                </mxCell>
                <mxCell id="127" value="" style="shape=flexArrow;endArrow=classic;html=1;labelBackgroundColor=#282C34;strokeColor=#a5e075;fontSize=17;" parent="1" edge="1">
                    <mxGeometry width="50" height="50" relative="1" as="geometry">
                        <mxPoint x="-550" y="79.49999999999999" as="sourcePoint"/>
                        <mxPoint x="-770" y="79.49999999999999" as="targetPoint"/>
                    </mxGeometry>
                </mxCell>
                <mxCell id="128" value="Way 0&amp;nbsp;" style="rounded=0;whiteSpace=wrap;html=1;labelBackgroundColor=#282C34;strokeColor=#e05561;fontSize=17;fillColor=#21252B;" parent="1" vertex="1">
                    <mxGeometry x="-1350" y="-430" width="300" height="110" as="geometry"/>
                </mxCell>
                <mxCell id="129" value="Way 1" style="rounded=0;whiteSpace=wrap;html=1;labelBackgroundColor=#282C34;strokeColor=#e05561;fontSize=17;fillColor=#21252B;" parent="1" vertex="1">
                    <mxGeometry x="-1350" y="-310" width="300" height="110" as="geometry"/>
                </mxCell>
                <mxCell id="130" value="Way N-1" style="rounded=0;whiteSpace=wrap;html=1;labelBackgroundColor=#282C34;strokeColor=#e05561;fontSize=17;fillColor=#21252B;" parent="1" vertex="1">
                    <mxGeometry x="-1350" y="-135" width="300" height="110" as="geometry"/>
                </mxCell>
                <mxCell id="131" value="Way N" style="rounded=0;whiteSpace=wrap;html=1;labelBackgroundColor=#282C34;strokeColor=#e05561;fontSize=17;fillColor=#21252B;" parent="1" vertex="1">
                    <mxGeometry x="-1350" y="-10" width="300" height="110" as="geometry"/>
                </mxCell>
                <mxCell id="132" value="" style="shape=flexArrow;endArrow=classic;html=1;labelBackgroundColor=#282C34;strokeColor=#a5e075;fontSize=17;exitX=0.5;exitY=1;exitDx=0;exitDy=0;entryX=0.5;entryY=0;entryDx=0;entryDy=0;width=6.47887323943662;endSize=3.4000000000000004;endWidth=14.231303312834754;" parent="1" source="119" target="120" edge="1">
                    <mxGeometry width="50" height="50" relative="1" as="geometry">
                        <mxPoint x="-1180" y="310" as="sourcePoint"/>
                        <mxPoint x="-1130" y="260" as="targetPoint"/>
                    </mxGeometry>
                </mxCell>
                <mxCell id="134" value="" style="rounded=0;whiteSpace=wrap;html=1;labelBackgroundColor=#282C34;strokeColor=#e05561;fontSize=17;fillColor=#21252B;" parent="1" vertex="1">
                    <mxGeometry x="-820" y="20" width="20" height="80" as="geometry"/>
                </mxCell>
                <mxCell id="140" value="" style="rounded=0;whiteSpace=wrap;html=1;labelBackgroundColor=#282C34;strokeColor=#e05561;fontSize=17;fillColor=#21252B;" parent="1" vertex="1">
                    <mxGeometry x="-1520" y="150" width="20" height="50" as="geometry"/>
                </mxCell>
                <mxCell id="141" value="" style="rounded=0;whiteSpace=wrap;html=1;labelBackgroundColor=#282C34;strokeColor=#e05561;fontSize=17;fillColor=#21252B;" parent="1" vertex="1">
                    <mxGeometry x="-1235" y="200" width="70" height="20" as="geometry"/>
                </mxCell>
                <mxCell id="142" value="" style="shape=flexArrow;endArrow=classic;html=1;labelBackgroundColor=#282C34;strokeColor=#a5e075;fontSize=17;" parent="1" edge="1">
                    <mxGeometry width="50" height="50" relative="1" as="geometry">
                        <mxPoint x="-1200.23" y="250" as="sourcePoint"/>
                        <mxPoint x="-1200.23" y="360" as="targetPoint"/>
                    </mxGeometry>
                </mxCell>
                <mxCell id="143" value="ChaosCore non-blocking D$" style="text;html=1;strokeColor=none;fillColor=none;align=center;verticalAlign=middle;whiteSpace=wrap;rounded=0;labelBackgroundColor=#282C34;fontSize=17;rotation=1;" parent="1" vertex="1">
                    <mxGeometry x="-1240" y="-590" width="160" height="80" as="geometry"/>
                </mxCell>
                <mxCell id="hhOvfTq4pQ0ATsaQz2jx-144" value="" style="rounded=0;whiteSpace=wrap;html=1;labelBackgroundColor=#282C34;strokeColor=#e05561;fontSize=17;fillColor=#21252B;" parent="1" vertex="1">
                    <mxGeometry x="-1000" y="160" width="200" height="60" as="geometry"/>
                </mxCell>
                <mxCell id="hhOvfTq4pQ0ATsaQz2jx-146" value="Non-Cacheable Bypass &amp;amp; Handling" style="text;html=1;strokeColor=none;fillColor=none;align=center;verticalAlign=middle;whiteSpace=wrap;rounded=0;labelBackgroundColor=#21252B;fontSize=17;" parent="1" vertex="1">
                    <mxGeometry x="-980" y="175" width="160" height="30" as="geometry"/>
                </mxCell>
            </root>
        </mxGraphModel>
    </diagram>
    <diagram id="3mZXem8Qnil5UCtNcQzt" name="Page-2">
        <mxGraphModel dx="3159" dy="1908" grid="1" gridSize="10" guides="1" tooltips="1" connect="1" arrows="1" fold="1" page="1" pageScale="1" pageWidth="850" pageHeight="1100" math="0" shadow="0">
            <root>
                <mxCell id="0"/>
                <mxCell id="1" parent="0"/>
                <mxCell id="4I00DtzKTK9SZKw2BRHF-1" value="Read valid, Tag, PLRU, Dirty" style="rounded=1;whiteSpace=wrap;html=1;fillColor=#21252b;strokeColor=#e05561;" parent="1" vertex="1">
                    <mxGeometry x="40" y="-680" width="260" height="40" as="geometry"/>
                </mxCell>
                <mxCell id="4I00DtzKTK9SZKw2BRHF-2" value="Read DMem" style="rounded=1;whiteSpace=wrap;html=1;fillColor=#21252b;strokeColor=#e05561;" parent="1" vertex="1">
                    <mxGeometry x="80" y="-600" width="260" height="40" as="geometry"/>
                </mxCell>
                <mxCell id="4I00DtzKTK9SZKw2BRHF-3" value="Format data" style="rounded=1;whiteSpace=wrap;html=1;fillColor=#21252b;strokeColor=#e05561;" parent="1" vertex="1">
                    <mxGeometry x="120" y="-520" width="260" height="40" as="geometry"/>
                </mxCell>
                <mxCell id="4I00DtzKTK9SZKw2BRHF-4" value="Update PLRU" style="rounded=1;whiteSpace=wrap;html=1;fillColor=#21252b;strokeColor=#e05561;" parent="1" vertex="1">
                    <mxGeometry x="360" y="-600" width="260" height="40" as="geometry"/>
                </mxCell>
                <mxCell id="4I00DtzKTK9SZKw2BRHF-5" value="Read hit" style="text;html=1;strokeColor=none;fillColor=none;align=center;verticalAlign=middle;whiteSpace=wrap;rounded=0;labelBackgroundColor=#282C34;fontSize=17;" parent="1" vertex="1">
                    <mxGeometry x="130" y="-750" width="90" height="30" as="geometry"/>
                </mxCell>
                <mxCell id="4I00DtzKTK9SZKw2BRHF-6" value="Read valid, Tag, PLRU, Dirty" style="rounded=1;whiteSpace=wrap;html=1;fillColor=#21252b;strokeColor=#e05561;" parent="1" vertex="1">
                    <mxGeometry x="680" y="-680" width="260" height="40" as="geometry"/>
                </mxCell>
                <mxCell id="4I00DtzKTK9SZKw2BRHF-7" value="Write Dmem" style="rounded=1;whiteSpace=wrap;html=1;fillColor=#21252b;strokeColor=#e05561;" parent="1" vertex="1">
                    <mxGeometry x="720" y="-600" width="260" height="40" as="geometry"/>
                </mxCell>
                <mxCell id="4I00DtzKTK9SZKw2BRHF-9" value="Update PLRU, dirty" style="rounded=1;whiteSpace=wrap;html=1;fillColor=#21252b;strokeColor=#e05561;" parent="1" vertex="1">
                    <mxGeometry x="1000" y="-600" width="260" height="40" as="geometry"/>
                </mxCell>
                <mxCell id="4I00DtzKTK9SZKw2BRHF-10" value="Write hit" style="text;html=1;strokeColor=none;fillColor=none;align=center;verticalAlign=middle;whiteSpace=wrap;rounded=0;labelBackgroundColor=#282C34;fontSize=17;" parent="1" vertex="1">
                    <mxGeometry x="770" y="-750" width="90" height="30" as="geometry"/>
                </mxCell>
                <mxCell id="4I00DtzKTK9SZKw2BRHF-11" value="Read valid, Tag, PLRU, Dirty" style="rounded=1;whiteSpace=wrap;html=1;fillColor=#21252b;strokeColor=#e05561;" parent="1" vertex="1">
                    <mxGeometry x="40" y="-360" width="260" height="40" as="geometry"/>
                </mxCell>
                <mxCell id="4I00DtzKTK9SZKw2BRHF-12" value="Update MSHRs" style="rounded=1;whiteSpace=wrap;html=1;fillColor=#21252b;strokeColor=#e05561;" parent="1" vertex="1">
                    <mxGeometry x="80" y="-280" width="260" height="40" as="geometry"/>
                </mxCell>
                <mxCell id="4I00DtzKTK9SZKw2BRHF-15" value="Read miss" style="text;html=1;strokeColor=none;fillColor=none;align=center;verticalAlign=middle;whiteSpace=wrap;rounded=0;labelBackgroundColor=#282C34;fontSize=17;" parent="1" vertex="1">
                    <mxGeometry x="130" y="-420" width="90" height="30" as="geometry"/>
                </mxCell>
                <mxCell id="4I00DtzKTK9SZKw2BRHF-16" value="Read valid, Tag, PLRU, Dirty" style="rounded=1;whiteSpace=wrap;html=1;fillColor=#21252b;strokeColor=#e05561;" parent="1" vertex="1">
                    <mxGeometry x="360" y="-360" width="260" height="40" as="geometry"/>
                </mxCell>
                <mxCell id="4I00DtzKTK9SZKw2BRHF-17" value="Update MSHRs" style="rounded=1;whiteSpace=wrap;html=1;fillColor=#21252b;strokeColor=#e05561;" parent="1" vertex="1">
                    <mxGeometry x="400" y="-280" width="260" height="40" as="geometry"/>
                </mxCell>
                <mxCell id="4I00DtzKTK9SZKw2BRHF-18" value="Write miss" style="text;html=1;strokeColor=none;fillColor=none;align=center;verticalAlign=middle;whiteSpace=wrap;rounded=0;labelBackgroundColor=#282C34;fontSize=17;" parent="1" vertex="1">
                    <mxGeometry x="450" y="-420" width="90" height="30" as="geometry"/>
                </mxCell>
                <mxCell id="4I00DtzKTK9SZKw2BRHF-19" value="Stall Cache" style="rounded=1;whiteSpace=wrap;html=1;fillColor=#21252b;strokeColor=#e05561;" parent="1" vertex="1">
                    <mxGeometry x="760" y="-360" width="260" height="40" as="geometry"/>
                </mxCell>
                <mxCell id="4I00DtzKTK9SZKw2BRHF-20" value="Read Eviction line (how?)" style="rounded=1;whiteSpace=wrap;html=1;fillColor=#21252b;strokeColor=#e05561;" parent="1" vertex="1">
                    <mxGeometry x="800" y="-280" width="260" height="40" as="geometry"/>
                </mxCell>
                <mxCell id="4I00DtzKTK9SZKw2BRHF-21" value="DRAM (AXI) response" style="text;html=1;strokeColor=none;fillColor=none;align=center;verticalAlign=middle;whiteSpace=wrap;rounded=0;labelBackgroundColor=#282C34;fontSize=17;" parent="1" vertex="1">
                    <mxGeometry x="825" y="-420" width="130" height="30" as="geometry"/>
                </mxCell>
                <mxCell id="4I00DtzKTK9SZKw2BRHF-22" value="Write/allocate new line" style="rounded=1;whiteSpace=wrap;html=1;fillColor=#21252b;strokeColor=#e05561;" parent="1" vertex="1">
                    <mxGeometry x="840" y="-200" width="260" height="40" as="geometry"/>
                </mxCell>
                <mxCell id="4I00DtzKTK9SZKw2BRHF-23" value="Write back evicted line if dirty" style="rounded=1;whiteSpace=wrap;html=1;fillColor=#21252b;strokeColor=#e05561;" parent="1" vertex="1">
                    <mxGeometry x="1140" y="-200" width="260" height="40" as="geometry"/>
                </mxCell>
                <mxCell id="4I00DtzKTK9SZKw2BRHF-24" value="Read eviction dirty" style="rounded=1;whiteSpace=wrap;html=1;fillColor=#21252b;strokeColor=#e05561;" parent="1" vertex="1">
                    <mxGeometry x="1100" y="-280" width="260" height="40" as="geometry"/>
                </mxCell>
                <mxCell id="4I00DtzKTK9SZKw2BRHF-25" value="Replay request (how?)" style="rounded=1;whiteSpace=wrap;html=1;fillColor=#21252b;strokeColor=#e05561;" parent="1" vertex="1">
                    <mxGeometry x="890" y="-120" width="260" height="40" as="geometry"/>
                </mxCell>
                <mxCell id="4I00DtzKTK9SZKw2BRHF-26" value="Ready cache" style="rounded=1;whiteSpace=wrap;html=1;fillColor=#21252b;strokeColor=#e05561;" parent="1" vertex="1">
                    <mxGeometry x="920" y="-40" width="260" height="40" as="geometry"/>
                </mxCell>
                <mxCell id="4I00DtzKTK9SZKw2BRHF-44" value="What about reads and writes to the system bus that are not DRAM reuqests?" style="text;html=1;strokeColor=none;fillColor=none;align=center;verticalAlign=middle;whiteSpace=wrap;rounded=0;labelBackgroundColor=#282C34;fontSize=17;" parent="1" vertex="1">
                    <mxGeometry x="1440" y="-675" width="210" height="105" as="geometry"/>
                </mxCell>
                <mxCell id="0wQg7YMnvFd0kfZZe1a6-1" value="ACTIVE" style="ellipse;whiteSpace=wrap;html=1;aspect=fixed;rounded=0;labelBackgroundColor=#21252B;strokeColor=#e05561;fontSize=17;fillColor=#21252B;" parent="1" vertex="1">
                    <mxGeometry x="-240" y="640" width="80" height="80" as="geometry"/>
                </mxCell>
                <mxCell id="0wQg7YMnvFd0kfZZe1a6-2" value="" style="ellipse;whiteSpace=wrap;html=1;aspect=fixed;rounded=0;labelBackgroundColor=#21252B;strokeColor=#e05561;fontSize=17;fillColor=#21252B;" parent="1" vertex="1">
                    <mxGeometry x="120" y="640" width="80" height="80" as="geometry"/>
                </mxCell>
                <mxCell id="0wQg7YMnvFd0kfZZe1a6-4" value="MSHRs&lt;br&gt;Full" style="text;html=1;strokeColor=none;fillColor=none;align=center;verticalAlign=middle;whiteSpace=wrap;rounded=0;labelBackgroundColor=none;fontSize=17;" parent="1" vertex="1">
                    <mxGeometry x="130" y="665" width="60" height="30" as="geometry"/>
                </mxCell>
                <mxCell id="0wQg7YMnvFd0kfZZe1a6-6" value="" style="ellipse;whiteSpace=wrap;html=1;aspect=fixed;rounded=0;labelBackgroundColor=#21252B;strokeColor=#e05561;fontSize=17;fillColor=#21252B;" parent="1" vertex="1">
                    <mxGeometry x="-240" y="835" width="90" height="90" as="geometry"/>
                </mxCell>
                <mxCell id="0wQg7YMnvFd0kfZZe1a6-8" value="" style="ellipse;whiteSpace=wrap;html=1;aspect=fixed;rounded=0;labelBackgroundColor=#21252B;strokeColor=#e05561;fontSize=17;fillColor=#21252B;" parent="1" vertex="1">
                    <mxGeometry x="-80" y="750" width="90" height="90" as="geometry"/>
                </mxCell>
                <mxCell id="0wQg7YMnvFd0kfZZe1a6-9" value="Replay&lt;br&gt;Read get way" style="text;html=1;strokeColor=none;fillColor=none;align=center;verticalAlign=middle;whiteSpace=wrap;rounded=0;labelBackgroundColor=none;fontSize=17;" parent="1" vertex="1">
                    <mxGeometry x="-70" y="780" width="70" height="30" as="geometry"/>
                </mxCell>
                <mxCell id="0wQg7YMnvFd0kfZZe1a6-10" value="" style="ellipse;whiteSpace=wrap;html=1;aspect=fixed;rounded=0;labelBackgroundColor=#21252B;strokeColor=#e05561;fontSize=17;fillColor=#21252B;" parent="1" vertex="1">
                    <mxGeometry x="75" y="750" width="90" height="90" as="geometry"/>
                </mxCell>
                <mxCell id="0wQg7YMnvFd0kfZZe1a6-12" value="" style="ellipse;whiteSpace=wrap;html=1;aspect=fixed;rounded=0;labelBackgroundColor=#21252B;strokeColor=#e05561;fontSize=17;fillColor=#21252B;" parent="1" vertex="1">
                    <mxGeometry x="240" y="750" width="90" height="90" as="geometry"/>
                </mxCell>
                <mxCell id="0wQg7YMnvFd0kfZZe1a6-13" value="Replay&lt;br&gt;Read FMT data" style="text;html=1;strokeColor=none;fillColor=none;align=center;verticalAlign=middle;whiteSpace=wrap;rounded=0;labelBackgroundColor=none;fontSize=17;" parent="1" vertex="1">
                    <mxGeometry x="250" y="780" width="70" height="30" as="geometry"/>
                </mxCell>
                <mxCell id="0wQg7YMnvFd0kfZZe1a6-14" value="" style="ellipse;whiteSpace=wrap;html=1;aspect=fixed;rounded=0;labelBackgroundColor=#21252B;strokeColor=#e05561;fontSize=17;fillColor=#21252B;" parent="1" vertex="1">
                    <mxGeometry x="-80" y="910" width="90" height="90" as="geometry"/>
                </mxCell>
                <mxCell id="0wQg7YMnvFd0kfZZe1a6-15" value="Replay&lt;br&gt;Write&lt;br&gt;get tag" style="text;html=1;strokeColor=none;fillColor=none;align=center;verticalAlign=middle;whiteSpace=wrap;rounded=0;labelBackgroundColor=none;fontSize=17;" parent="1" vertex="1">
                    <mxGeometry x="-70" y="940" width="70" height="30" as="geometry"/>
                </mxCell>
                <mxCell id="0wQg7YMnvFd0kfZZe1a6-16" value="" style="ellipse;whiteSpace=wrap;html=1;aspect=fixed;rounded=0;labelBackgroundColor=#21252B;strokeColor=#e05561;fontSize=17;fillColor=#21252B;" parent="1" vertex="1">
                    <mxGeometry x="85" y="910" width="90" height="90" as="geometry"/>
                </mxCell>
                <mxCell id="0wQg7YMnvFd0kfZZe1a6-20" value="" style="endArrow=classic;html=1;labelBackgroundColor=#282C34;strokeColor=#a5e075;fontSize=17;exitX=1;exitY=0.5;exitDx=0;exitDy=0;entryX=0;entryY=0.5;entryDx=0;entryDy=0;" parent="1" source="0wQg7YMnvFd0kfZZe1a6-1" target="0wQg7YMnvFd0kfZZe1a6-2" edge="1">
                    <mxGeometry width="50" height="50" relative="1" as="geometry">
                        <mxPoint x="-90" y="620" as="sourcePoint"/>
                        <mxPoint x="-40" y="570" as="targetPoint"/>
                    </mxGeometry>
                </mxCell>
                <mxCell id="0wQg7YMnvFd0kfZZe1a6-21" value="" style="endArrow=classic;html=1;labelBackgroundColor=#282C34;strokeColor=#a5e075;fontSize=17;exitX=0.5;exitY=1;exitDx=0;exitDy=0;entryX=0.5;entryY=0;entryDx=0;entryDy=0;" parent="1" source="0wQg7YMnvFd0kfZZe1a6-1" edge="1">
                    <mxGeometry width="50" height="50" relative="1" as="geometry">
                        <mxPoint x="-440" y="800" as="sourcePoint"/>
                        <mxPoint x="-200" y="835.0000000000005" as="targetPoint"/>
                    </mxGeometry>
                </mxCell>
                <mxCell id="0wQg7YMnvFd0kfZZe1a6-24" value="" style="endArrow=classic;html=1;labelBackgroundColor=#282C34;strokeColor=#a5e075;fontSize=17;exitX=1;exitY=0.5;exitDx=0;exitDy=0;entryX=0;entryY=0.5;entryDx=0;entryDy=0;" parent="1" source="0wQg7YMnvFd0kfZZe1a6-6" target="0wQg7YMnvFd0kfZZe1a6-8" edge="1">
                    <mxGeometry width="50" height="50" relative="1" as="geometry">
                        <mxPoint x="-55" y="885" as="sourcePoint"/>
                        <mxPoint x="-5" y="835" as="targetPoint"/>
                    </mxGeometry>
                </mxCell>
                <mxCell id="0wQg7YMnvFd0kfZZe1a6-25" value="" style="endArrow=classic;html=1;labelBackgroundColor=#282C34;strokeColor=#a5e075;fontSize=17;exitX=1;exitY=0.5;exitDx=0;exitDy=0;entryX=0;entryY=0.5;entryDx=0;entryDy=0;" parent="1" source="0wQg7YMnvFd0kfZZe1a6-6" target="0wQg7YMnvFd0kfZZe1a6-14" edge="1">
                    <mxGeometry width="50" height="50" relative="1" as="geometry">
                        <mxPoint x="-195" y="995" as="sourcePoint"/>
                        <mxPoint x="-145" y="945" as="targetPoint"/>
                    </mxGeometry>
                </mxCell>
                <mxCell id="0wQg7YMnvFd0kfZZe1a6-26" value="" style="endArrow=classic;html=1;labelBackgroundColor=#282C34;strokeColor=#a5e075;fontSize=17;exitX=1;exitY=0.5;exitDx=0;exitDy=0;entryX=0;entryY=0.5;entryDx=0;entryDy=0;" parent="1" source="0wQg7YMnvFd0kfZZe1a6-8" target="0wQg7YMnvFd0kfZZe1a6-10" edge="1">
                    <mxGeometry width="50" height="50" relative="1" as="geometry">
                        <mxPoint x="35" y="745" as="sourcePoint"/>
                        <mxPoint x="85" y="695" as="targetPoint"/>
                    </mxGeometry>
                </mxCell>
                <mxCell id="0wQg7YMnvFd0kfZZe1a6-27" value="" style="endArrow=classic;html=1;labelBackgroundColor=#282C34;strokeColor=#a5e075;fontSize=17;exitX=1;exitY=0.5;exitDx=0;exitDy=0;entryX=0;entryY=0.5;entryDx=0;entryDy=0;" parent="1" target="0wQg7YMnvFd0kfZZe1a6-12" edge="1">
                    <mxGeometry width="50" height="50" relative="1" as="geometry">
                        <mxPoint x="165" y="794.66" as="sourcePoint"/>
                        <mxPoint x="244.9999999999959" y="794.66" as="targetPoint"/>
                    </mxGeometry>
                </mxCell>
                <mxCell id="0wQg7YMnvFd0kfZZe1a6-28" value="" style="endArrow=classic;html=1;labelBackgroundColor=#282C34;strokeColor=#a5e075;fontSize=17;entryX=0;entryY=0.5;entryDx=0;entryDy=0;exitX=1;exitY=0.5;exitDx=0;exitDy=0;" parent="1" source="0wQg7YMnvFd0kfZZe1a6-14" edge="1">
                    <mxGeometry width="50" height="50" relative="1" as="geometry">
                        <mxPoint x="15" y="955" as="sourcePoint"/>
                        <mxPoint x="84.99999999999181" y="955.3399999999999" as="targetPoint"/>
                    </mxGeometry>
                </mxCell>
                <mxCell id="0wQg7YMnvFd0kfZZe1a6-30" value="" style="curved=1;endArrow=classic;html=1;labelBackgroundColor=#282C34;strokeColor=#a5e075;fontSize=17;exitX=0.5;exitY=0;exitDx=0;exitDy=0;entryX=1;entryY=0;entryDx=0;entryDy=0;" parent="1" source="0wQg7YMnvFd0kfZZe1a6-12" target="0wQg7YMnvFd0kfZZe1a6-1" edge="1">
                    <mxGeometry width="50" height="50" relative="1" as="geometry">
                        <mxPoint x="340" y="800" as="sourcePoint"/>
                        <mxPoint x="390" y="750" as="targetPoint"/>
                        <Array as="points">
                            <mxPoint x="380" y="770"/>
                            <mxPoint x="110" y="470"/>
                        </Array>
                    </mxGeometry>
                </mxCell>
                <mxCell id="0wQg7YMnvFd0kfZZe1a6-31" value="" style="curved=1;endArrow=classic;html=1;labelBackgroundColor=#282C34;strokeColor=#a5e075;fontSize=17;exitX=0.5;exitY=1;exitDx=0;exitDy=0;entryX=0;entryY=0.5;entryDx=0;entryDy=0;" parent="1" source="0wQg7YMnvFd0kfZZe1a6-16" target="0wQg7YMnvFd0kfZZe1a6-1" edge="1">
                    <mxGeometry width="50" height="50" relative="1" as="geometry">
                        <mxPoint x="-240" y="1290" as="sourcePoint"/>
                        <mxPoint x="-190" y="1240" as="targetPoint"/>
                        <Array as="points">
                            <mxPoint x="70" y="1290"/>
                            <mxPoint x="-400" y="1250"/>
                            <mxPoint x="-420" y="700"/>
                        </Array>
                    </mxGeometry>
                </mxCell>
                <mxCell id="0wQg7YMnvFd0kfZZe1a6-32" value="Replay Read read DMEM" style="text;html=1;strokeColor=none;fillColor=none;align=center;verticalAlign=middle;whiteSpace=wrap;rounded=0;labelBackgroundColor=none;fontSize=17;" parent="1" vertex="1">
                    <mxGeometry x="85" y="780" width="70" height="30" as="geometry"/>
                </mxCell>
                <mxCell id="0wQg7YMnvFd0kfZZe1a6-33" value="Replay Write update data" style="text;html=1;strokeColor=none;fillColor=none;align=center;verticalAlign=middle;whiteSpace=wrap;rounded=0;labelBackgroundColor=none;fontSize=17;" parent="1" vertex="1">
                    <mxGeometry x="95" y="940" width="70" height="30" as="geometry"/>
                </mxCell>
                <mxCell id="0wQg7YMnvFd0kfZZe1a6-34" value="Allocate DRAM line" style="text;html=1;strokeColor=none;fillColor=none;align=center;verticalAlign=middle;whiteSpace=wrap;rounded=0;labelBackgroundColor=none;fontSize=17;" parent="1" vertex="1">
                    <mxGeometry x="-230" y="865" width="70" height="30" as="geometry"/>
                </mxCell>
                <mxCell id="0wQg7YMnvFd0kfZZe1a6-41" value="" style="group" parent="1" vertex="1" connectable="0">
                    <mxGeometry x="900" y="640" width="120" height="80" as="geometry"/>
                </mxCell>
                <mxCell id="0wQg7YMnvFd0kfZZe1a6-35" value="" style="endArrow=none;html=1;labelBackgroundColor=#282C34;strokeColor=#E05561;fontSize=17;rounded=0;" parent="0wQg7YMnvFd0kfZZe1a6-41" edge="1">
                    <mxGeometry width="50" height="50" relative="1" as="geometry">
                        <mxPoint x="-40" y="80" as="sourcePoint"/>
                        <mxPoint x="-40" as="targetPoint"/>
                        <Array as="points">
                            <mxPoint x="60" y="80"/>
                            <mxPoint x="60"/>
                        </Array>
                    </mxGeometry>
                </mxCell>
                <mxCell id="0wQg7YMnvFd0kfZZe1a6-37" value="" style="rounded=0;whiteSpace=wrap;html=1;labelBackgroundColor=none;strokeColor=#e05561;fontSize=17;fillColor=#21252B;" parent="0wQg7YMnvFd0kfZZe1a6-41" vertex="1">
                    <mxGeometry x="40" width="20" height="80" as="geometry"/>
                </mxCell>
                <mxCell id="0wQg7YMnvFd0kfZZe1a6-38" value="" style="rounded=0;whiteSpace=wrap;html=1;labelBackgroundColor=none;strokeColor=#e05561;fontSize=17;fillColor=#21252B;" parent="0wQg7YMnvFd0kfZZe1a6-41" vertex="1">
                    <mxGeometry x="20" width="20" height="80" as="geometry"/>
                </mxCell>
                <mxCell id="0wQg7YMnvFd0kfZZe1a6-39" value="" style="rounded=0;whiteSpace=wrap;html=1;labelBackgroundColor=none;strokeColor=#e05561;fontSize=17;fillColor=#21252B;" parent="0wQg7YMnvFd0kfZZe1a6-41" vertex="1">
                    <mxGeometry width="20" height="80" as="geometry"/>
                </mxCell>
                <mxCell id="0wQg7YMnvFd0kfZZe1a6-40" value="" style="endArrow=classic;html=1;rounded=0;labelBackgroundColor=#282C34;strokeColor=#A5E075;fontSize=17;exitX=1;exitY=0.5;exitDx=0;exitDy=0;" parent="0wQg7YMnvFd0kfZZe1a6-41" source="0wQg7YMnvFd0kfZZe1a6-37" edge="1">
                    <mxGeometry width="50" height="50" relative="1" as="geometry">
                        <mxPoint x="80" y="40" as="sourcePoint"/>
                        <mxPoint x="120" y="40" as="targetPoint"/>
                    </mxGeometry>
                </mxCell>
                <mxCell id="EGTFTpTyDqocjpRA94lp-19" value="Valid" style="rounded=1;whiteSpace=wrap;html=1;labelBackgroundColor=none;strokeColor=#e05561;fontSize=17;fillColor=#21252B;" parent="1" vertex="1">
                    <mxGeometry x="-120" y="1360" width="160" height="280" as="geometry"/>
                </mxCell>
                <mxCell id="EGTFTpTyDqocjpRA94lp-22" value="" style="rounded=1;whiteSpace=wrap;html=1;labelBackgroundColor=none;strokeColor=#e05561;fontSize=17;fillColor=#21252B;" parent="1" vertex="1">
                    <mxGeometry x="520" y="1480" width="440" height="560" as="geometry"/>
                </mxCell>
                <mxCell id="EGTFTpTyDqocjpRA94lp-24" value="" style="shape=flexArrow;endArrow=classic;html=1;rounded=0;labelBackgroundColor=#282C34;strokeColor=#A5E075;fontSize=17;" parent="1" edge="1">
                    <mxGeometry width="50" height="50" relative="1" as="geometry">
                        <mxPoint x="330" y="1920" as="sourcePoint"/>
                        <mxPoint x="520" y="1920" as="targetPoint"/>
                    </mxGeometry>
                </mxCell>
                <mxCell id="EGTFTpTyDqocjpRA94lp-25" value="{Hit way, set}" style="edgeLabel;html=1;align=center;verticalAlign=middle;resizable=0;points=[];fontSize=17;" parent="EGTFTpTyDqocjpRA94lp-24" vertex="1" connectable="0">
                    <mxGeometry x="-0.1173" y="-1" relative="1" as="geometry">
                        <mxPoint as="offset"/>
                    </mxGeometry>
                </mxCell>
                <mxCell id="EGTFTpTyDqocjpRA94lp-26" value="32B" style="shape=flexArrow;endArrow=classic;html=1;rounded=0;labelBackgroundColor=#282C34;strokeColor=#A5E075;fontSize=17;exitX=0.5;exitY=1;exitDx=0;exitDy=0;" parent="1" source="EGTFTpTyDqocjpRA94lp-22" edge="1">
                    <mxGeometry width="50" height="50" relative="1" as="geometry">
                        <mxPoint x="760" y="2190" as="sourcePoint"/>
                        <mxPoint x="740" y="2170" as="targetPoint"/>
                    </mxGeometry>
                </mxCell>
                <mxCell id="EGTFTpTyDqocjpRA94lp-27" value="FMT" style="rounded=0;whiteSpace=wrap;html=1;labelBackgroundColor=none;strokeColor=#e05561;fontSize=17;fillColor=#21252B;" parent="1" vertex="1">
                    <mxGeometry x="520" y="2170" width="440" height="60" as="geometry"/>
                </mxCell>
                <mxCell id="EGTFTpTyDqocjpRA94lp-28" value="" style="shape=flexArrow;endArrow=classic;html=1;rounded=0;labelBackgroundColor=#282C34;strokeColor=#A5E075;fontSize=17;exitX=0.5;exitY=1;exitDx=0;exitDy=0;" parent="1" source="EGTFTpTyDqocjpRA94lp-27" edge="1">
                    <mxGeometry width="50" height="50" relative="1" as="geometry">
                        <mxPoint x="660" y="2370" as="sourcePoint"/>
                        <mxPoint x="740" y="2320" as="targetPoint"/>
                    </mxGeometry>
                </mxCell>
                <mxCell id="EGTFTpTyDqocjpRA94lp-47" value="" style="shape=flexArrow;endArrow=classic;html=1;rounded=0;labelBackgroundColor=#282C34;strokeColor=#A5E075;fontSize=17;exitX=1;exitY=0.25;exitDx=0;exitDy=0;" parent="1" edge="1">
                    <mxGeometry width="50" height="50" relative="1" as="geometry">
                        <mxPoint x="40" y="1750" as="sourcePoint"/>
                        <mxPoint x="120" y="1750" as="targetPoint"/>
                    </mxGeometry>
                </mxCell>
                <mxCell id="EGTFTpTyDqocjpRA94lp-50" value="Tag" style="rounded=1;whiteSpace=wrap;html=1;labelBackgroundColor=none;strokeColor=#e05561;fontSize=17;fillColor=#21252B;" parent="1" vertex="1">
                    <mxGeometry x="-120" y="1680" width="160" height="280" as="geometry"/>
                </mxCell>
                <mxCell id="EGTFTpTyDqocjpRA94lp-51" value="PLRU" style="rounded=1;whiteSpace=wrap;html=1;labelBackgroundColor=none;strokeColor=#e05561;fontSize=17;fillColor=#21252B;" parent="1" vertex="1">
                    <mxGeometry x="-120" y="2000" width="160" height="280" as="geometry"/>
                </mxCell>
                <mxCell id="EGTFTpTyDqocjpRA94lp-52" value="Dirty" style="rounded=1;whiteSpace=wrap;html=1;labelBackgroundColor=none;strokeColor=#e05561;fontSize=17;fillColor=#21252B;" parent="1" vertex="1">
                    <mxGeometry x="-120" y="2320" width="160" height="280" as="geometry"/>
                </mxCell>
                <mxCell id="EGTFTpTyDqocjpRA94lp-56" value="" style="endArrow=classic;html=1;rounded=0;labelBackgroundColor=#282C34;strokeColor=#A5E075;fontSize=17;" parent="1" edge="1">
                    <mxGeometry width="50" height="50" relative="1" as="geometry">
                        <mxPoint x="-280" y="1585" as="sourcePoint"/>
                        <mxPoint x="-120" y="1584.66" as="targetPoint"/>
                    </mxGeometry>
                </mxCell>
                <mxCell id="EGTFTpTyDqocjpRA94lp-62" value="allocate_wr_en[0:N-1]" style="edgeLabel;html=1;align=center;verticalAlign=middle;resizable=0;points=[];fontSize=14;" parent="EGTFTpTyDqocjpRA94lp-56" vertex="1" connectable="0">
                    <mxGeometry x="-0.0517" relative="1" as="geometry">
                        <mxPoint x="-6" as="offset"/>
                    </mxGeometry>
                </mxCell>
                <mxCell id="EGTFTpTyDqocjpRA94lp-57" value="&lt;font style=&quot;font-size: 14px;&quot;&gt;wr_en&lt;/font&gt;" style="text;html=1;strokeColor=none;fillColor=none;align=left;verticalAlign=middle;whiteSpace=wrap;rounded=0;labelBackgroundColor=none;fontSize=17;" parent="1" vertex="1">
                    <mxGeometry x="-120" y="1570" width="60" height="30" as="geometry"/>
                </mxCell>
                <mxCell id="EGTFTpTyDqocjpRA94lp-58" value="&lt;font style=&quot;font-size: 14px;&quot;&gt;data&lt;/font&gt;" style="text;html=1;strokeColor=none;fillColor=none;align=left;verticalAlign=middle;whiteSpace=wrap;rounded=0;labelBackgroundColor=none;fontSize=17;" parent="1" vertex="1">
                    <mxGeometry x="-120" y="1510" width="60" height="30" as="geometry"/>
                </mxCell>
                <mxCell id="EGTFTpTyDqocjpRA94lp-59" value="&lt;font style=&quot;font-size: 14px;&quot;&gt;addr&lt;/font&gt;" style="text;html=1;strokeColor=none;fillColor=none;align=left;verticalAlign=middle;whiteSpace=wrap;rounded=0;labelBackgroundColor=none;fontSize=17;" parent="1" vertex="1">
                    <mxGeometry x="-120" y="1540" width="60" height="30" as="geometry"/>
                </mxCell>
                <mxCell id="EGTFTpTyDqocjpRA94lp-60" value="" style="endArrow=classic;html=1;rounded=0;labelBackgroundColor=#282C34;strokeColor=#A5E075;fontSize=17;" parent="1" edge="1">
                    <mxGeometry width="50" height="50" relative="1" as="geometry">
                        <mxPoint x="-280" y="1555" as="sourcePoint"/>
                        <mxPoint x="-120" y="1554.6599999999999" as="targetPoint"/>
                    </mxGeometry>
                </mxCell>
                <mxCell id="EGTFTpTyDqocjpRA94lp-63" value="allocate_set" style="edgeLabel;html=1;align=center;verticalAlign=middle;resizable=0;points=[];fontSize=14;" parent="EGTFTpTyDqocjpRA94lp-60" vertex="1" connectable="0">
                    <mxGeometry x="-0.0909" relative="1" as="geometry">
                        <mxPoint as="offset"/>
                    </mxGeometry>
                </mxCell>
                <mxCell id="EGTFTpTyDqocjpRA94lp-61" value="" style="endArrow=classic;html=1;rounded=0;labelBackgroundColor=#282C34;strokeColor=#A5E075;fontSize=17;" parent="1" edge="1">
                    <mxGeometry width="50" height="50" relative="1" as="geometry">
                        <mxPoint x="-280" y="1525" as="sourcePoint"/>
                        <mxPoint x="-120" y="1524.6599999999999" as="targetPoint"/>
                    </mxGeometry>
                </mxCell>
                <mxCell id="EGTFTpTyDqocjpRA94lp-64" value="1'b1" style="edgeLabel;html=1;align=center;verticalAlign=middle;resizable=0;points=[];fontSize=14;" parent="EGTFTpTyDqocjpRA94lp-61" vertex="1" connectable="0">
                    <mxGeometry x="-0.1133" y="-1" relative="1" as="geometry">
                        <mxPoint as="offset"/>
                    </mxGeometry>
                </mxCell>
                <mxCell id="EGTFTpTyDqocjpRA94lp-80" value="" style="endArrow=classic;html=1;rounded=0;labelBackgroundColor=#282C34;strokeColor=#A5E075;fontSize=17;" parent="1" edge="1">
                    <mxGeometry width="50" height="50" relative="1" as="geometry">
                        <mxPoint x="-280" y="1915" as="sourcePoint"/>
                        <mxPoint x="-120" y="1914.6599999999999" as="targetPoint"/>
                    </mxGeometry>
                </mxCell>
                <mxCell id="EGTFTpTyDqocjpRA94lp-81" value="allocate_wr_en[0:N-1]" style="edgeLabel;html=1;align=center;verticalAlign=middle;resizable=0;points=[];fontSize=14;" parent="EGTFTpTyDqocjpRA94lp-80" vertex="1" connectable="0">
                    <mxGeometry x="-0.0517" relative="1" as="geometry">
                        <mxPoint x="-6" as="offset"/>
                    </mxGeometry>
                </mxCell>
                <mxCell id="EGTFTpTyDqocjpRA94lp-82" value="&lt;font style=&quot;font-size: 14px;&quot;&gt;wr_en&lt;/font&gt;" style="text;html=1;strokeColor=none;fillColor=none;align=left;verticalAlign=middle;whiteSpace=wrap;rounded=0;labelBackgroundColor=none;fontSize=17;" parent="1" vertex="1">
                    <mxGeometry x="-120" y="1900" width="60" height="30" as="geometry"/>
                </mxCell>
                <mxCell id="EGTFTpTyDqocjpRA94lp-83" value="&lt;font style=&quot;font-size: 14px;&quot;&gt;data&lt;/font&gt;" style="text;html=1;strokeColor=none;fillColor=none;align=left;verticalAlign=middle;whiteSpace=wrap;rounded=0;labelBackgroundColor=none;fontSize=17;" parent="1" vertex="1">
                    <mxGeometry x="-120" y="1840" width="60" height="30" as="geometry"/>
                </mxCell>
                <mxCell id="EGTFTpTyDqocjpRA94lp-84" value="&lt;font style=&quot;font-size: 14px;&quot;&gt;addr&lt;/font&gt;" style="text;html=1;strokeColor=none;fillColor=none;align=left;verticalAlign=middle;whiteSpace=wrap;rounded=0;labelBackgroundColor=none;fontSize=17;" parent="1" vertex="1">
                    <mxGeometry x="-120" y="1870" width="60" height="30" as="geometry"/>
                </mxCell>
                <mxCell id="EGTFTpTyDqocjpRA94lp-85" value="" style="endArrow=classic;html=1;rounded=0;labelBackgroundColor=#282C34;strokeColor=#A5E075;fontSize=17;" parent="1" edge="1">
                    <mxGeometry width="50" height="50" relative="1" as="geometry">
                        <mxPoint x="-280" y="1885" as="sourcePoint"/>
                        <mxPoint x="-120" y="1884.6599999999999" as="targetPoint"/>
                    </mxGeometry>
                </mxCell>
                <mxCell id="EGTFTpTyDqocjpRA94lp-86" value="allocate_set" style="edgeLabel;html=1;align=center;verticalAlign=middle;resizable=0;points=[];fontSize=14;" parent="EGTFTpTyDqocjpRA94lp-85" vertex="1" connectable="0">
                    <mxGeometry x="-0.0909" relative="1" as="geometry">
                        <mxPoint as="offset"/>
                    </mxGeometry>
                </mxCell>
                <mxCell id="EGTFTpTyDqocjpRA94lp-87" value="" style="endArrow=classic;html=1;rounded=0;labelBackgroundColor=#282C34;strokeColor=#A5E075;fontSize=17;" parent="1" edge="1">
                    <mxGeometry width="50" height="50" relative="1" as="geometry">
                        <mxPoint x="-280" y="1855" as="sourcePoint"/>
                        <mxPoint x="-120" y="1854.6599999999999" as="targetPoint"/>
                    </mxGeometry>
                </mxCell>
                <mxCell id="EGTFTpTyDqocjpRA94lp-88" value="1'b1" style="edgeLabel;html=1;align=center;verticalAlign=middle;resizable=0;points=[];fontSize=14;" parent="EGTFTpTyDqocjpRA94lp-87" vertex="1" connectable="0">
                    <mxGeometry x="-0.1133" y="-1" relative="1" as="geometry">
                        <mxPoint as="offset"/>
                    </mxGeometry>
                </mxCell>
                <mxCell id="EGTFTpTyDqocjpRA94lp-89" value="" style="endArrow=classic;html=1;rounded=0;labelBackgroundColor=#282C34;strokeColor=#A5E075;fontSize=17;" parent="1" edge="1">
                    <mxGeometry width="50" height="50" relative="1" as="geometry">
                        <mxPoint x="-280" y="2555" as="sourcePoint"/>
                        <mxPoint x="-120" y="2554.66" as="targetPoint"/>
                    </mxGeometry>
                </mxCell>
                <mxCell id="EGTFTpTyDqocjpRA94lp-90" value="allocate_wr_en[0:N-1]" style="edgeLabel;html=1;align=center;verticalAlign=middle;resizable=0;points=[];fontSize=14;" parent="EGTFTpTyDqocjpRA94lp-89" vertex="1" connectable="0">
                    <mxGeometry x="-0.0517" relative="1" as="geometry">
                        <mxPoint x="-6" as="offset"/>
                    </mxGeometry>
                </mxCell>
                <mxCell id="EGTFTpTyDqocjpRA94lp-91" value="&lt;font style=&quot;font-size: 14px;&quot;&gt;wr_en&lt;/font&gt;" style="text;html=1;strokeColor=none;fillColor=none;align=left;verticalAlign=middle;whiteSpace=wrap;rounded=0;labelBackgroundColor=none;fontSize=17;" parent="1" vertex="1">
                    <mxGeometry x="-120" y="2540" width="60" height="30" as="geometry"/>
                </mxCell>
                <mxCell id="EGTFTpTyDqocjpRA94lp-92" value="&lt;font style=&quot;font-size: 14px;&quot;&gt;data&lt;/font&gt;" style="text;html=1;strokeColor=none;fillColor=none;align=left;verticalAlign=middle;whiteSpace=wrap;rounded=0;labelBackgroundColor=none;fontSize=17;" parent="1" vertex="1">
                    <mxGeometry x="-120" y="2480" width="60" height="30" as="geometry"/>
                </mxCell>
                <mxCell id="EGTFTpTyDqocjpRA94lp-93" value="&lt;font style=&quot;font-size: 14px;&quot;&gt;addr&lt;/font&gt;" style="text;html=1;strokeColor=none;fillColor=none;align=left;verticalAlign=middle;whiteSpace=wrap;rounded=0;labelBackgroundColor=none;fontSize=17;" parent="1" vertex="1">
                    <mxGeometry x="-120" y="2510" width="60" height="30" as="geometry"/>
                </mxCell>
                <mxCell id="EGTFTpTyDqocjpRA94lp-94" value="" style="endArrow=classic;html=1;rounded=0;labelBackgroundColor=#282C34;strokeColor=#A5E075;fontSize=17;" parent="1" edge="1">
                    <mxGeometry width="50" height="50" relative="1" as="geometry">
                        <mxPoint x="-280" y="2525" as="sourcePoint"/>
                        <mxPoint x="-120" y="2524.66" as="targetPoint"/>
                    </mxGeometry>
                </mxCell>
                <mxCell id="EGTFTpTyDqocjpRA94lp-95" value="allocate_set" style="edgeLabel;html=1;align=center;verticalAlign=middle;resizable=0;points=[];fontSize=14;" parent="EGTFTpTyDqocjpRA94lp-94" vertex="1" connectable="0">
                    <mxGeometry x="-0.0909" relative="1" as="geometry">
                        <mxPoint as="offset"/>
                    </mxGeometry>
                </mxCell>
                <mxCell id="EGTFTpTyDqocjpRA94lp-96" value="" style="endArrow=classic;html=1;rounded=0;labelBackgroundColor=#282C34;strokeColor=#A5E075;fontSize=17;" parent="1" edge="1">
                    <mxGeometry width="50" height="50" relative="1" as="geometry">
                        <mxPoint x="-280" y="2495" as="sourcePoint"/>
                        <mxPoint x="-120" y="2494.66" as="targetPoint"/>
                    </mxGeometry>
                </mxCell>
                <mxCell id="EGTFTpTyDqocjpRA94lp-97" value="1'b0" style="edgeLabel;html=1;align=center;verticalAlign=middle;resizable=0;points=[];fontSize=14;" parent="EGTFTpTyDqocjpRA94lp-96" vertex="1" connectable="0">
                    <mxGeometry x="-0.1133" y="-1" relative="1" as="geometry">
                        <mxPoint as="offset"/>
                    </mxGeometry>
                </mxCell>
                <mxCell id="EGTFTpTyDqocjpRA94lp-111" value="&lt;font style=&quot;font-size: 14px;&quot;&gt;addr&lt;/font&gt;" style="text;html=1;strokeColor=none;fillColor=none;align=left;verticalAlign=middle;whiteSpace=wrap;rounded=0;labelBackgroundColor=none;fontSize=17;" parent="1" vertex="1">
                    <mxGeometry x="-120" y="1400" width="60" height="30" as="geometry"/>
                </mxCell>
                <mxCell id="EGTFTpTyDqocjpRA94lp-112" value="" style="endArrow=classic;html=1;rounded=0;labelBackgroundColor=#282C34;strokeColor=#A5E075;fontSize=17;" parent="1" edge="1">
                    <mxGeometry width="50" height="50" relative="1" as="geometry">
                        <mxPoint x="-280" y="1415" as="sourcePoint"/>
                        <mxPoint x="-120" y="1414.6599999999999" as="targetPoint"/>
                    </mxGeometry>
                </mxCell>
                <mxCell id="EGTFTpTyDqocjpRA94lp-113" value="active_set" style="edgeLabel;html=1;align=center;verticalAlign=middle;resizable=0;points=[];fontSize=14;" parent="EGTFTpTyDqocjpRA94lp-112" vertex="1" connectable="0">
                    <mxGeometry x="-0.0909" relative="1" as="geometry">
                        <mxPoint as="offset"/>
                    </mxGeometry>
                </mxCell>
                <mxCell id="EGTFTpTyDqocjpRA94lp-116" value="&lt;font style=&quot;font-size: 14px;&quot;&gt;addr&lt;/font&gt;" style="text;html=1;strokeColor=none;fillColor=none;align=left;verticalAlign=middle;whiteSpace=wrap;rounded=0;labelBackgroundColor=none;fontSize=17;" parent="1" vertex="1">
                    <mxGeometry x="-120" y="1730" width="60" height="30" as="geometry"/>
                </mxCell>
                <mxCell id="EGTFTpTyDqocjpRA94lp-117" value="" style="endArrow=classic;html=1;rounded=0;labelBackgroundColor=#282C34;strokeColor=#A5E075;fontSize=17;" parent="1" edge="1">
                    <mxGeometry width="50" height="50" relative="1" as="geometry">
                        <mxPoint x="-280" y="1745" as="sourcePoint"/>
                        <mxPoint x="-120" y="1744.6599999999999" as="targetPoint"/>
                    </mxGeometry>
                </mxCell>
                <mxCell id="EGTFTpTyDqocjpRA94lp-118" value="active_set" style="edgeLabel;html=1;align=center;verticalAlign=middle;resizable=0;points=[];fontSize=14;" parent="EGTFTpTyDqocjpRA94lp-117" vertex="1" connectable="0">
                    <mxGeometry x="-0.0909" relative="1" as="geometry">
                        <mxPoint as="offset"/>
                    </mxGeometry>
                </mxCell>
                <mxCell id="EGTFTpTyDqocjpRA94lp-119" value="" style="shape=flexArrow;endArrow=classic;html=1;rounded=0;labelBackgroundColor=#282C34;strokeColor=#A5E075;fontSize=14;entryX=0.5;entryY=0;entryDx=0;entryDy=0;exitX=1;exitY=0.179;exitDx=0;exitDy=0;exitPerimeter=0;" parent="1" source="EGTFTpTyDqocjpRA94lp-19" edge="1">
                    <mxGeometry width="50" height="50" relative="1" as="geometry">
                        <mxPoint x="40" y="1420" as="sourcePoint"/>
                        <mxPoint x="150" y="1720" as="targetPoint"/>
                        <Array as="points">
                            <mxPoint x="150" y="1410"/>
                        </Array>
                    </mxGeometry>
                </mxCell>
                <mxCell id="EGTFTpTyDqocjpRA94lp-120" value="" style="rounded=0;whiteSpace=wrap;html=1;labelBackgroundColor=none;strokeColor=#e05561;fontSize=17;fillColor=#21252B;" parent="1" vertex="1">
                    <mxGeometry x="120" y="1720" width="60" height="130" as="geometry"/>
                </mxCell>
                <mxCell id="EGTFTpTyDqocjpRA94lp-121" value="" style="endArrow=classic;html=1;rounded=0;labelBackgroundColor=#282C34;strokeColor=#A5E075;fontSize=14;" parent="1" edge="1">
                    <mxGeometry width="50" height="50" relative="1" as="geometry">
                        <mxPoint x="180" y="1785.62" as="sourcePoint"/>
                        <mxPoint x="290" y="1785.62" as="targetPoint"/>
                    </mxGeometry>
                </mxCell>
                <mxCell id="EGTFTpTyDqocjpRA94lp-122" value="valid_hit" style="edgeLabel;html=1;align=center;verticalAlign=middle;resizable=0;points=[];fontSize=14;" parent="EGTFTpTyDqocjpRA94lp-121" vertex="1" connectable="0">
                    <mxGeometry x="-0.301" y="1" relative="1" as="geometry">
                        <mxPoint x="16" as="offset"/>
                    </mxGeometry>
                </mxCell>
                <mxCell id="EGTFTpTyDqocjpRA94lp-125" value="" style="endArrow=classic;html=1;rounded=0;labelBackgroundColor=#282C34;strokeColor=#A5E075;fontSize=14;" parent="1" edge="1">
                    <mxGeometry width="50" height="50" relative="1" as="geometry">
                        <mxPoint x="180" y="1815.3899999999999" as="sourcePoint"/>
                        <mxPoint x="290" y="1815.3899999999999" as="targetPoint"/>
                    </mxGeometry>
                </mxCell>
                <mxCell id="EGTFTpTyDqocjpRA94lp-126" value="valid_miss" style="edgeLabel;html=1;align=center;verticalAlign=middle;resizable=0;points=[];fontSize=14;" parent="EGTFTpTyDqocjpRA94lp-125" vertex="1" connectable="0">
                    <mxGeometry x="-0.301" y="1" relative="1" as="geometry">
                        <mxPoint x="16" y="1" as="offset"/>
                    </mxGeometry>
                </mxCell>
                <mxCell id="EGTFTpTyDqocjpRA94lp-127" value="" style="endArrow=classic;html=1;rounded=0;labelBackgroundColor=#282C34;strokeColor=#A5E075;fontSize=14;" parent="1" edge="1">
                    <mxGeometry width="50" height="50" relative="1" as="geometry">
                        <mxPoint x="180" y="1755.1499999999999" as="sourcePoint"/>
                        <mxPoint x="290" y="1755.1499999999999" as="targetPoint"/>
                    </mxGeometry>
                </mxCell>
                <mxCell id="EGTFTpTyDqocjpRA94lp-128" value="hit_way" style="edgeLabel;html=1;align=center;verticalAlign=middle;resizable=0;points=[];fontSize=14;" parent="EGTFTpTyDqocjpRA94lp-127" vertex="1" connectable="0">
                    <mxGeometry x="-0.301" y="1" relative="1" as="geometry">
                        <mxPoint x="16" as="offset"/>
                    </mxGeometry>
                </mxCell>
                <mxCell id="EGTFTpTyDqocjpRA94lp-129" value="" style="endArrow=classic;html=1;rounded=0;labelBackgroundColor=#282C34;strokeColor=#A5E075;fontSize=14;entryX=0.5;entryY=1;entryDx=0;entryDy=0;" parent="1" target="EGTFTpTyDqocjpRA94lp-120" edge="1">
                    <mxGeometry width="50" height="50" relative="1" as="geometry">
                        <mxPoint x="150" y="1930" as="sourcePoint"/>
                        <mxPoint x="190" y="1930" as="targetPoint"/>
                    </mxGeometry>
                </mxCell>
                <mxCell id="EGTFTpTyDqocjpRA94lp-130" value="active_valid" style="edgeLabel;html=1;align=center;verticalAlign=middle;resizable=0;points=[];fontSize=14;" parent="EGTFTpTyDqocjpRA94lp-129" vertex="1" connectable="0">
                    <mxGeometry x="0.175" relative="1" as="geometry">
                        <mxPoint x="1" as="offset"/>
                    </mxGeometry>
                </mxCell>
                <mxCell id="EGTFTpTyDqocjpRA94lp-133" value="" style="endArrow=classic;html=1;rounded=0;labelBackgroundColor=#282C34;strokeColor=#A5E075;fontSize=17;" parent="1" edge="1">
                    <mxGeometry width="50" height="50" relative="1" as="geometry">
                        <mxPoint x="-280" y="2225" as="sourcePoint"/>
                        <mxPoint x="-120" y="2224.66" as="targetPoint"/>
                    </mxGeometry>
                </mxCell>
                <mxCell id="EGTFTpTyDqocjpRA94lp-153" value="hit" style="edgeLabel;html=1;align=center;verticalAlign=middle;resizable=0;points=[];fontSize=14;" parent="EGTFTpTyDqocjpRA94lp-133" vertex="1" connectable="0">
                    <mxGeometry x="0.0994" relative="1" as="geometry">
                        <mxPoint as="offset"/>
                    </mxGeometry>
                </mxCell>
                <mxCell id="EGTFTpTyDqocjpRA94lp-135" value="&lt;font style=&quot;font-size: 14px;&quot;&gt;wr_en&lt;/font&gt;" style="text;html=1;strokeColor=none;fillColor=none;align=left;verticalAlign=middle;whiteSpace=wrap;rounded=0;labelBackgroundColor=none;fontSize=17;" parent="1" vertex="1">
                    <mxGeometry x="-120" y="2210" width="60" height="30" as="geometry"/>
                </mxCell>
                <mxCell id="EGTFTpTyDqocjpRA94lp-136" value="&lt;font style=&quot;font-size: 14px;&quot;&gt;data&lt;/font&gt;" style="text;html=1;strokeColor=none;fillColor=none;align=left;verticalAlign=middle;whiteSpace=wrap;rounded=0;labelBackgroundColor=none;fontSize=17;" parent="1" vertex="1">
                    <mxGeometry x="-120" y="2150" width="60" height="30" as="geometry"/>
                </mxCell>
                <mxCell id="EGTFTpTyDqocjpRA94lp-137" value="&lt;font style=&quot;font-size: 14px;&quot;&gt;addr&lt;/font&gt;" style="text;html=1;strokeColor=none;fillColor=none;align=left;verticalAlign=middle;whiteSpace=wrap;rounded=0;labelBackgroundColor=none;fontSize=17;" parent="1" vertex="1">
                    <mxGeometry x="-120" y="2180" width="60" height="30" as="geometry"/>
                </mxCell>
                <mxCell id="EGTFTpTyDqocjpRA94lp-138" value="" style="endArrow=classic;html=1;rounded=0;labelBackgroundColor=#282C34;strokeColor=#A5E075;fontSize=17;" parent="1" edge="1">
                    <mxGeometry width="50" height="50" relative="1" as="geometry">
                        <mxPoint x="-280" y="2195" as="sourcePoint"/>
                        <mxPoint x="-120" y="2194.66" as="targetPoint"/>
                    </mxGeometry>
                </mxCell>
                <mxCell id="EGTFTpTyDqocjpRA94lp-140" value="" style="endArrow=classic;html=1;rounded=0;labelBackgroundColor=#282C34;strokeColor=#A5E075;fontSize=17;" parent="1" edge="1">
                    <mxGeometry width="50" height="50" relative="1" as="geometry">
                        <mxPoint x="-280" y="2165" as="sourcePoint"/>
                        <mxPoint x="-120" y="2164.66" as="targetPoint"/>
                    </mxGeometry>
                </mxCell>
                <mxCell id="EGTFTpTyDqocjpRA94lp-155" value="updated_PLRU" style="edgeLabel;html=1;align=center;verticalAlign=middle;resizable=0;points=[];fontSize=14;" parent="EGTFTpTyDqocjpRA94lp-140" vertex="1" connectable="0">
                    <mxGeometry x="0.0426" y="-1" relative="1" as="geometry">
                        <mxPoint x="-13" y="-1" as="offset"/>
                    </mxGeometry>
                </mxCell>
                <mxCell id="EGTFTpTyDqocjpRA94lp-142" value="&lt;font style=&quot;font-size: 14px;&quot;&gt;addr&lt;/font&gt;" style="text;html=1;strokeColor=none;fillColor=none;align=left;verticalAlign=middle;whiteSpace=wrap;rounded=0;labelBackgroundColor=none;fontSize=17;" parent="1" vertex="1">
                    <mxGeometry x="-120" y="2040" width="60" height="30" as="geometry"/>
                </mxCell>
                <mxCell id="EGTFTpTyDqocjpRA94lp-143" value="" style="endArrow=classic;html=1;rounded=0;labelBackgroundColor=#282C34;strokeColor=#A5E075;fontSize=17;" parent="1" edge="1">
                    <mxGeometry width="50" height="50" relative="1" as="geometry">
                        <mxPoint x="-280" y="2055" as="sourcePoint"/>
                        <mxPoint x="-120" y="2054.66" as="targetPoint"/>
                    </mxGeometry>
                </mxCell>
                <mxCell id="EGTFTpTyDqocjpRA94lp-144" value="active_set" style="edgeLabel;html=1;align=center;verticalAlign=middle;resizable=0;points=[];fontSize=14;" parent="EGTFTpTyDqocjpRA94lp-143" vertex="1" connectable="0">
                    <mxGeometry x="-0.0909" relative="1" as="geometry">
                        <mxPoint as="offset"/>
                    </mxGeometry>
                </mxCell>
                <mxCell id="EGTFTpTyDqocjpRA94lp-145" value="" style="endArrow=classic;html=1;rounded=0;labelBackgroundColor=#282C34;strokeColor=#A5E075;fontSize=14;" parent="1" edge="1">
                    <mxGeometry width="50" height="50" relative="1" as="geometry">
                        <mxPoint x="40" y="2054.76" as="sourcePoint"/>
                        <mxPoint x="140" y="2054.76" as="targetPoint"/>
                    </mxGeometry>
                </mxCell>
                <mxCell id="EGTFTpTyDqocjpRA94lp-146" value="PLRU update" style="rounded=0;whiteSpace=wrap;html=1;labelBackgroundColor=none;strokeColor=#e05561;fontSize=14;fillColor=#21252B;" parent="1" vertex="1">
                    <mxGeometry x="140" y="2025" width="100" height="60" as="geometry"/>
                </mxCell>
                <mxCell id="EGTFTpTyDqocjpRA94lp-147" value="" style="endArrow=classic;html=1;rounded=0;labelBackgroundColor=#282C34;strokeColor=#A5E075;fontSize=14;entryX=0.5;entryY=0;entryDx=0;entryDy=0;" parent="1" target="EGTFTpTyDqocjpRA94lp-146" edge="1">
                    <mxGeometry width="50" height="50" relative="1" as="geometry">
                        <mxPoint x="190" y="1950" as="sourcePoint"/>
                        <mxPoint x="280" y="1890" as="targetPoint"/>
                    </mxGeometry>
                </mxCell>
                <mxCell id="EGTFTpTyDqocjpRA94lp-148" value="hit_way" style="edgeLabel;html=1;align=center;verticalAlign=middle;resizable=0;points=[];fontSize=14;" parent="EGTFTpTyDqocjpRA94lp-147" vertex="1" connectable="0">
                    <mxGeometry x="-0.073" y="1" relative="1" as="geometry">
                        <mxPoint as="offset"/>
                    </mxGeometry>
                </mxCell>
                <mxCell id="EGTFTpTyDqocjpRA94lp-150" value="" style="endArrow=classic;html=1;rounded=0;labelBackgroundColor=#282C34;strokeColor=#A5E075;fontSize=14;exitX=1;exitY=0.5;exitDx=0;exitDy=0;" parent="1" source="EGTFTpTyDqocjpRA94lp-146" edge="1">
                    <mxGeometry width="50" height="50" relative="1" as="geometry">
                        <mxPoint x="260" y="2070" as="sourcePoint"/>
                        <mxPoint x="370" y="2055" as="targetPoint"/>
                    </mxGeometry>
                </mxCell>
                <mxCell id="EGTFTpTyDqocjpRA94lp-151" value="updated_PLRU" style="edgeLabel;html=1;align=center;verticalAlign=middle;resizable=0;points=[];fontSize=14;" parent="EGTFTpTyDqocjpRA94lp-150" vertex="1" connectable="0">
                    <mxGeometry x="-0.1766" y="-1" relative="1" as="geometry">
                        <mxPoint as="offset"/>
                    </mxGeometry>
                </mxCell>
                <mxCell id="EGTFTpTyDqocjpRA94lp-156" value="" style="rounded=0;whiteSpace=wrap;html=1;labelBackgroundColor=none;strokeColor=#e05561;fontSize=14;fillColor=#21252B;" parent="1" vertex="1">
                    <mxGeometry x="-300" y="2182.5" width="20" height="25" as="geometry"/>
                </mxCell>
                <mxCell id="EGTFTpTyDqocjpRA94lp-157" value="" style="triangle;whiteSpace=wrap;html=1;rounded=0;labelBackgroundColor=none;strokeColor=#e05561;fontSize=14;fillColor=#21252B;rotation=-90;" parent="1" vertex="1">
                    <mxGeometry x="-295" y="2197.5" width="10" height="10" as="geometry"/>
                </mxCell>
                <mxCell id="EGTFTpTyDqocjpRA94lp-158" value="" style="endArrow=classic;html=1;rounded=0;labelBackgroundColor=#282C34;strokeColor=#A5E075;fontSize=14;entryX=0;entryY=0.5;entryDx=0;entryDy=0;" parent="1" target="EGTFTpTyDqocjpRA94lp-156" edge="1">
                    <mxGeometry width="50" height="50" relative="1" as="geometry">
                        <mxPoint x="-400" y="2195" as="sourcePoint"/>
                        <mxPoint x="-310" y="2190" as="targetPoint"/>
                    </mxGeometry>
                </mxCell>
                <mxCell id="EGTFTpTyDqocjpRA94lp-159" value="allocate_set" style="edgeLabel;html=1;align=center;verticalAlign=middle;resizable=0;points=[];fontSize=14;" parent="EGTFTpTyDqocjpRA94lp-158" vertex="1" connectable="0">
                    <mxGeometry x="-0.21" relative="1" as="geometry">
                        <mxPoint as="offset"/>
                    </mxGeometry>
                </mxCell>
                <mxCell id="EGTFTpTyDqocjpRA94lp-164" value="" style="shape=trapezoid;perimeter=trapezoidPerimeter;whiteSpace=wrap;html=1;fixedSize=1;rounded=0;labelBackgroundColor=none;strokeColor=#e05561;fontSize=14;fillColor=#21252B;rotation=90;" parent="1" vertex="1">
                    <mxGeometry x="-750" y="1470" width="120" height="60" as="geometry"/>
                </mxCell>
                <mxCell id="EGTFTpTyDqocjpRA94lp-165" value="" style="endArrow=classic;html=1;rounded=0;labelBackgroundColor=#282C34;strokeColor=#A5E075;fontSize=14;entryX=0.25;entryY=1;entryDx=0;entryDy=0;" parent="1" target="EGTFTpTyDqocjpRA94lp-164" edge="1">
                    <mxGeometry width="50" height="50" relative="1" as="geometry">
                        <mxPoint x="-800" y="1350" as="sourcePoint"/>
                        <mxPoint x="-770" y="1300" as="targetPoint"/>
                        <Array as="points">
                            <mxPoint x="-800" y="1470"/>
                        </Array>
                    </mxGeometry>
                </mxCell>
                <mxCell id="EGTFTpTyDqocjpRA94lp-167" value="Replay request" style="edgeLabel;html=1;align=center;verticalAlign=middle;resizable=0;points=[];fontSize=14;" parent="EGTFTpTyDqocjpRA94lp-165" vertex="1" connectable="0">
                    <mxGeometry x="-0.3" relative="1" as="geometry">
                        <mxPoint as="offset"/>
                    </mxGeometry>
                </mxCell>
                <mxCell id="EGTFTpTyDqocjpRA94lp-166" value="" style="endArrow=classic;html=1;rounded=0;labelBackgroundColor=#282C34;strokeColor=#A5E075;fontSize=14;entryX=0.75;entryY=1;entryDx=0;entryDy=0;" parent="1" target="EGTFTpTyDqocjpRA94lp-164" edge="1">
                    <mxGeometry width="50" height="50" relative="1" as="geometry">
                        <mxPoint x="-880" y="1530" as="sourcePoint"/>
                        <mxPoint x="-810" y="1520" as="targetPoint"/>
                        <mxPoint as="offset"/>
                    </mxGeometry>
                </mxCell>
                <mxCell id="EGTFTpTyDqocjpRA94lp-168" value="CPU request" style="edgeLabel;html=1;align=center;verticalAlign=middle;resizable=0;points=[];fontSize=14;" parent="EGTFTpTyDqocjpRA94lp-166" vertex="1" connectable="0">
                    <mxGeometry x="-0.1768" y="-1" relative="1" as="geometry">
                        <mxPoint as="offset"/>
                    </mxGeometry>
                </mxCell>
                <mxCell id="EGTFTpTyDqocjpRA94lp-169" value="" style="endArrow=classic;html=1;rounded=0;labelBackgroundColor=#282C34;strokeColor=#A5E075;fontSize=14;exitX=0.552;exitY=0.007;exitDx=0;exitDy=0;exitPerimeter=0;" parent="1" source="EGTFTpTyDqocjpRA94lp-164" edge="1">
                    <mxGeometry width="50" height="50" relative="1" as="geometry">
                        <mxPoint x="-620" y="1520" as="sourcePoint"/>
                        <mxPoint x="-530" y="1506" as="targetPoint"/>
                    </mxGeometry>
                </mxCell>
                <mxCell id="EGTFTpTyDqocjpRA94lp-170" value="active_request" style="edgeLabel;html=1;align=center;verticalAlign=middle;resizable=0;points=[];fontSize=14;" parent="EGTFTpTyDqocjpRA94lp-169" vertex="1" connectable="0">
                    <mxGeometry x="-0.1326" y="1" relative="1" as="geometry">
                        <mxPoint as="offset"/>
                    </mxGeometry>
                </mxCell>
                <mxCell id="EGTFTpTyDqocjpRA94lp-171" value="" style="endArrow=classic;html=1;rounded=0;labelBackgroundColor=#282C34;strokeColor=#A5E075;fontSize=14;entryX=0;entryY=0.5;entryDx=0;entryDy=0;" parent="1" target="EGTFTpTyDqocjpRA94lp-27" edge="1">
                    <mxGeometry width="50" height="50" relative="1" as="geometry">
                        <mxPoint x="400" y="2200" as="sourcePoint"/>
                        <mxPoint x="380" y="2140" as="targetPoint"/>
                    </mxGeometry>
                </mxCell>
                <mxCell id="EGTFTpTyDqocjpRA94lp-173" value="" style="rounded=0;whiteSpace=wrap;html=1;labelBackgroundColor=none;strokeColor=#e05561;fontSize=14;fillColor=#21252B;" parent="1" vertex="1">
                    <mxGeometry x="380" y="2187.25" width="20" height="25.5" as="geometry"/>
                </mxCell>
                <mxCell id="EGTFTpTyDqocjpRA94lp-174" value="" style="triangle;whiteSpace=wrap;html=1;rounded=0;labelBackgroundColor=none;strokeColor=#e05561;fontSize=14;fillColor=#21252B;rotation=-90;" parent="1" vertex="1">
                    <mxGeometry x="385" y="2202.75" width="10" height="10" as="geometry"/>
                </mxCell>
                <mxCell id="EGTFTpTyDqocjpRA94lp-175" value="" style="rounded=0;whiteSpace=wrap;html=1;labelBackgroundColor=none;strokeColor=#e05561;fontSize=14;fillColor=#21252B;" parent="1" vertex="1">
                    <mxGeometry x="330" y="2187.25" width="20" height="25.5" as="geometry"/>
                </mxCell>
                <mxCell id="EGTFTpTyDqocjpRA94lp-176" value="" style="triangle;whiteSpace=wrap;html=1;rounded=0;labelBackgroundColor=none;strokeColor=#e05561;fontSize=14;fillColor=#21252B;rotation=-90;" parent="1" vertex="1">
                    <mxGeometry x="335" y="2202.75" width="10" height="10" as="geometry"/>
                </mxCell>
                <mxCell id="EGTFTpTyDqocjpRA94lp-177" value="" style="endArrow=classic;html=1;rounded=0;labelBackgroundColor=#282C34;strokeColor=#A5E075;fontSize=14;exitX=1;exitY=0.5;exitDx=0;exitDy=0;entryX=0;entryY=0.5;entryDx=0;entryDy=0;" parent="1" source="EGTFTpTyDqocjpRA94lp-175" target="EGTFTpTyDqocjpRA94lp-173" edge="1">
                    <mxGeometry width="50" height="50" relative="1" as="geometry">
                        <mxPoint x="370" y="2210" as="sourcePoint"/>
                        <mxPoint x="420" y="2160" as="targetPoint"/>
                    </mxGeometry>
                </mxCell>
                <mxCell id="EGTFTpTyDqocjpRA94lp-178" value="" style="endArrow=classic;html=1;rounded=0;labelBackgroundColor=#282C34;strokeColor=#A5E075;fontSize=14;entryX=0;entryY=0.5;entryDx=0;entryDy=0;" parent="1" edge="1">
                    <mxGeometry width="50" height="50" relative="1" as="geometry">
                        <mxPoint x="230" y="2200" as="sourcePoint"/>
                        <mxPoint x="330" y="2200" as="targetPoint"/>
                    </mxGeometry>
                </mxCell>
                <mxCell id="EGTFTpTyDqocjpRA94lp-180" value="allocate_ctrl" style="edgeLabel;html=1;align=center;verticalAlign=middle;resizable=0;points=[];fontSize=14;" parent="EGTFTpTyDqocjpRA94lp-178" vertex="1" connectable="0">
                    <mxGeometry x="-0.2684" y="1" relative="1" as="geometry">
                        <mxPoint x="3" y="1" as="offset"/>
                    </mxGeometry>
                </mxCell>
                <mxCell id="EGTFTpTyDqocjpRA94lp-183" value="" style="endArrow=none;html=1;rounded=0;labelBackgroundColor=#282C34;strokeColor=#A5E075;fontSize=14;" parent="1" edge="1">
                    <mxGeometry width="50" height="50" relative="1" as="geometry">
                        <mxPoint x="960" y="2170" as="sourcePoint"/>
                        <mxPoint x="1010" y="2120" as="targetPoint"/>
                    </mxGeometry>
                </mxCell>
                <mxCell id="EGTFTpTyDqocjpRA94lp-184" value="" style="endArrow=none;html=1;rounded=0;labelBackgroundColor=#282C34;strokeColor=#A5E075;fontSize=14;exitX=1;exitY=1;exitDx=0;exitDy=0;" parent="1" source="EGTFTpTyDqocjpRA94lp-27" edge="1">
                    <mxGeometry width="50" height="50" relative="1" as="geometry">
                        <mxPoint x="1090" y="2280" as="sourcePoint"/>
                        <mxPoint x="1010" y="2280" as="targetPoint"/>
                    </mxGeometry>
                </mxCell>
                <mxCell id="EGTFTpTyDqocjpRA94lp-185" value="Select Word" style="rounded=0;whiteSpace=wrap;html=1;labelBackgroundColor=none;strokeColor=#e05561;fontSize=14;fillColor=#21252B;" parent="1" vertex="1">
                    <mxGeometry x="1080" y="2123.25" width="195" height="33.5" as="geometry"/>
                </mxCell>
                <mxCell id="EGTFTpTyDqocjpRA94lp-186" value="shift" style="rounded=0;whiteSpace=wrap;html=1;labelBackgroundColor=none;strokeColor=#e05561;fontSize=14;fillColor=#21252B;" parent="1" vertex="1">
                    <mxGeometry x="1080" y="2170" width="195" height="33.5" as="geometry"/>
                </mxCell>
                <mxCell id="EGTFTpTyDqocjpRA94lp-187" value="mask" style="rounded=0;whiteSpace=wrap;html=1;labelBackgroundColor=none;strokeColor=#e05561;fontSize=14;fillColor=#21252B;" parent="1" vertex="1">
                    <mxGeometry x="1080" y="2220" width="195" height="33.5" as="geometry"/>
                </mxCell>
                <mxCell id="EGTFTpTyDqocjpRA94lp-188" value="What word does the byte align fall under?" style="text;html=1;strokeColor=none;fillColor=none;align=center;verticalAlign=middle;whiteSpace=wrap;rounded=0;labelBackgroundColor=none;fontSize=14;" parent="1" vertex="1">
                    <mxGeometry x="1300" y="2125" width="180" height="30" as="geometry"/>
                </mxCell>
                <mxCell id="EGTFTpTyDqocjpRA94lp-189" value="what is the shift within that word?" style="text;html=1;strokeColor=none;fillColor=none;align=center;verticalAlign=middle;whiteSpace=wrap;rounded=0;labelBackgroundColor=none;fontSize=14;" parent="1" vertex="1">
                    <mxGeometry x="1320" y="2171.75" width="130" height="30" as="geometry"/>
                </mxCell>
                <mxCell id="EGTFTpTyDqocjpRA94lp-190" value="LB/LHW/LW?" style="text;html=1;strokeColor=none;fillColor=none;align=center;verticalAlign=middle;whiteSpace=wrap;rounded=0;labelBackgroundColor=none;fontSize=14;" parent="1" vertex="1">
                    <mxGeometry x="1325" y="2223.5" width="130" height="30" as="geometry"/>
                </mxCell>
                <mxCell id="EGTFTpTyDqocjpRA94lp-191" value="Implement as a function" style="text;html=1;strokeColor=none;fillColor=none;align=center;verticalAlign=middle;whiteSpace=wrap;rounded=0;labelBackgroundColor=none;fontSize=14;" parent="1" vertex="1">
                    <mxGeometry x="1148" y="2080" width="60" height="30" as="geometry"/>
                </mxCell>
                <mxCell id="zyog96r8CnRyBwW-GgIO-1" value="" style="group" vertex="1" connectable="0" parent="1">
                    <mxGeometry x="900" y="840" width="120" height="80" as="geometry"/>
                </mxCell>
                <mxCell id="zyog96r8CnRyBwW-GgIO-2" value="" style="endArrow=none;html=1;labelBackgroundColor=#282C34;strokeColor=#E05561;fontSize=17;rounded=0;" edge="1" parent="zyog96r8CnRyBwW-GgIO-1">
                    <mxGeometry width="50" height="50" relative="1" as="geometry">
                        <mxPoint x="-40" y="80" as="sourcePoint"/>
                        <mxPoint x="-40" as="targetPoint"/>
                        <Array as="points">
                            <mxPoint x="60" y="80"/>
                            <mxPoint x="60"/>
                        </Array>
                    </mxGeometry>
                </mxCell>
                <mxCell id="zyog96r8CnRyBwW-GgIO-3" value="" style="rounded=0;whiteSpace=wrap;html=1;labelBackgroundColor=none;strokeColor=#e05561;fontSize=17;fillColor=#21252B;" vertex="1" parent="zyog96r8CnRyBwW-GgIO-1">
                    <mxGeometry x="40" width="20" height="80" as="geometry"/>
                </mxCell>
                <mxCell id="zyog96r8CnRyBwW-GgIO-4" value="" style="rounded=0;whiteSpace=wrap;html=1;labelBackgroundColor=none;strokeColor=#e05561;fontSize=17;fillColor=#21252B;" vertex="1" parent="zyog96r8CnRyBwW-GgIO-1">
                    <mxGeometry x="20" width="20" height="80" as="geometry"/>
                </mxCell>
                <mxCell id="zyog96r8CnRyBwW-GgIO-5" value="" style="rounded=0;whiteSpace=wrap;html=1;labelBackgroundColor=none;strokeColor=#e05561;fontSize=17;fillColor=#21252B;" vertex="1" parent="zyog96r8CnRyBwW-GgIO-1">
                    <mxGeometry width="20" height="80" as="geometry"/>
                </mxCell>
                <mxCell id="zyog96r8CnRyBwW-GgIO-6" value="" style="endArrow=classic;html=1;rounded=0;labelBackgroundColor=#282C34;strokeColor=#A5E075;fontSize=17;exitX=1;exitY=0.5;exitDx=0;exitDy=0;" edge="1" parent="zyog96r8CnRyBwW-GgIO-1" source="zyog96r8CnRyBwW-GgIO-3">
                    <mxGeometry width="50" height="50" relative="1" as="geometry">
                        <mxPoint x="80" y="40" as="sourcePoint"/>
                        <mxPoint x="120" y="40" as="targetPoint"/>
                    </mxGeometry>
                </mxCell>
                <mxCell id="zyog96r8CnRyBwW-GgIO-7" value="ARB" style="rhombus;whiteSpace=wrap;html=1;" vertex="1" parent="1">
                    <mxGeometry x="1000" y="640" width="60" height="280" as="geometry"/>
                </mxCell>
                <mxCell id="zyog96r8CnRyBwW-GgIO-8" value="" style="group" vertex="1" connectable="0" parent="1">
                    <mxGeometry x="1220" y="740" width="120" height="80" as="geometry"/>
                </mxCell>
                <mxCell id="zyog96r8CnRyBwW-GgIO-9" value="" style="endArrow=none;html=1;labelBackgroundColor=#282C34;strokeColor=#E05561;fontSize=17;rounded=0;" edge="1" parent="zyog96r8CnRyBwW-GgIO-8">
                    <mxGeometry width="50" height="50" relative="1" as="geometry">
                        <mxPoint x="-40" y="80" as="sourcePoint"/>
                        <mxPoint x="-40" as="targetPoint"/>
                        <Array as="points">
                            <mxPoint x="60" y="80"/>
                            <mxPoint x="60"/>
                        </Array>
                    </mxGeometry>
                </mxCell>
                <mxCell id="zyog96r8CnRyBwW-GgIO-10" value="" style="rounded=0;whiteSpace=wrap;html=1;labelBackgroundColor=none;strokeColor=#e05561;fontSize=17;fillColor=#21252B;" vertex="1" parent="zyog96r8CnRyBwW-GgIO-8">
                    <mxGeometry x="40" width="20" height="80" as="geometry"/>
                </mxCell>
                <mxCell id="zyog96r8CnRyBwW-GgIO-11" value="" style="rounded=0;whiteSpace=wrap;html=1;labelBackgroundColor=none;strokeColor=#e05561;fontSize=17;fillColor=#21252B;" vertex="1" parent="zyog96r8CnRyBwW-GgIO-8">
                    <mxGeometry x="20" width="20" height="80" as="geometry"/>
                </mxCell>
                <mxCell id="zyog96r8CnRyBwW-GgIO-12" value="" style="rounded=0;whiteSpace=wrap;html=1;labelBackgroundColor=none;strokeColor=#e05561;fontSize=17;fillColor=#21252B;" vertex="1" parent="zyog96r8CnRyBwW-GgIO-8">
                    <mxGeometry width="20" height="80" as="geometry"/>
                </mxCell>
                <mxCell id="zyog96r8CnRyBwW-GgIO-13" value="" style="endArrow=classic;html=1;rounded=0;labelBackgroundColor=#282C34;strokeColor=#A5E075;fontSize=17;exitX=1;exitY=0.5;exitDx=0;exitDy=0;" edge="1" parent="zyog96r8CnRyBwW-GgIO-8" source="zyog96r8CnRyBwW-GgIO-10">
                    <mxGeometry width="50" height="50" relative="1" as="geometry">
                        <mxPoint x="80" y="40" as="sourcePoint"/>
                        <mxPoint x="120" y="40" as="targetPoint"/>
                    </mxGeometry>
                </mxCell>
                <mxCell id="zyog96r8CnRyBwW-GgIO-14" value="cacheable request q" style="text;html=1;strokeColor=none;fillColor=none;align=center;verticalAlign=middle;whiteSpace=wrap;rounded=0;" vertex="1" parent="1">
                    <mxGeometry x="890" y="600" width="60" height="30" as="geometry"/>
                </mxCell>
                <mxCell id="zyog96r8CnRyBwW-GgIO-15" value="non-cacheable request q" style="text;html=1;strokeColor=none;fillColor=none;align=center;verticalAlign=middle;whiteSpace=wrap;rounded=0;" vertex="1" parent="1">
                    <mxGeometry x="875" y="800" width="90" height="30" as="geometry"/>
                </mxCell>
                <mxCell id="zyog96r8CnRyBwW-GgIO-16" value="AXI request q" style="text;html=1;strokeColor=none;fillColor=none;align=center;verticalAlign=middle;whiteSpace=wrap;rounded=0;" vertex="1" parent="1">
                    <mxGeometry x="1180" y="685" width="120" height="30" as="geometry"/>
                </mxCell>
                <mxCell id="zyog96r8CnRyBwW-GgIO-17" value="" style="endArrow=classic;html=1;exitX=1;exitY=0.5;exitDx=0;exitDy=0;" edge="1" parent="1" source="zyog96r8CnRyBwW-GgIO-7">
                    <mxGeometry width="50" height="50" relative="1" as="geometry">
                        <mxPoint x="1190" y="600" as="sourcePoint"/>
                        <mxPoint x="1200" y="780" as="targetPoint"/>
                    </mxGeometry>
                </mxCell>
                <mxCell id="zyog96r8CnRyBwW-GgIO-25" value="" style="group;rotation=-180;" vertex="1" connectable="0" parent="1">
                    <mxGeometry x="1040" y="1160" width="120" height="80" as="geometry"/>
                </mxCell>
                <mxCell id="zyog96r8CnRyBwW-GgIO-26" value="" style="endArrow=none;html=1;labelBackgroundColor=#282C34;strokeColor=#E05561;fontSize=17;rounded=0;" edge="1" parent="zyog96r8CnRyBwW-GgIO-25">
                    <mxGeometry width="50" height="50" relative="1" as="geometry">
                        <mxPoint x="160" as="sourcePoint"/>
                        <mxPoint x="160" y="80" as="targetPoint"/>
                        <Array as="points">
                            <mxPoint x="60"/>
                            <mxPoint x="60" y="80"/>
                        </Array>
                    </mxGeometry>
                </mxCell>
                <mxCell id="zyog96r8CnRyBwW-GgIO-27" value="" style="rounded=0;whiteSpace=wrap;html=1;labelBackgroundColor=none;strokeColor=#e05561;fontSize=17;fillColor=#21252B;rotation=-180;" vertex="1" parent="zyog96r8CnRyBwW-GgIO-25">
                    <mxGeometry x="60" width="20" height="80" as="geometry"/>
                </mxCell>
                <mxCell id="zyog96r8CnRyBwW-GgIO-28" value="" style="rounded=0;whiteSpace=wrap;html=1;labelBackgroundColor=none;strokeColor=#e05561;fontSize=17;fillColor=#21252B;rotation=-180;" vertex="1" parent="zyog96r8CnRyBwW-GgIO-25">
                    <mxGeometry x="80" width="20" height="80" as="geometry"/>
                </mxCell>
                <mxCell id="zyog96r8CnRyBwW-GgIO-29" value="" style="rounded=0;whiteSpace=wrap;html=1;labelBackgroundColor=none;strokeColor=#e05561;fontSize=17;fillColor=#21252B;rotation=-180;" vertex="1" parent="zyog96r8CnRyBwW-GgIO-25">
                    <mxGeometry x="100" width="20" height="80" as="geometry"/>
                </mxCell>
                <mxCell id="zyog96r8CnRyBwW-GgIO-30" value="" style="endArrow=classic;html=1;rounded=0;labelBackgroundColor=#282C34;strokeColor=#A5E075;fontSize=17;exitX=1;exitY=0.5;exitDx=0;exitDy=0;" edge="1" parent="zyog96r8CnRyBwW-GgIO-25" source="zyog96r8CnRyBwW-GgIO-27">
                    <mxGeometry width="50" height="50" relative="1" as="geometry">
                        <mxPoint x="40" y="40" as="sourcePoint"/>
                        <mxPoint x="-160" y="40" as="targetPoint"/>
                    </mxGeometry>
                </mxCell>
                <mxCell id="zyog96r8CnRyBwW-GgIO-33" value="" style="endArrow=classic;html=1;" edge="1" parent="1">
                    <mxGeometry width="50" height="50" relative="1" as="geometry">
                        <mxPoint x="1490" y="1199.91" as="sourcePoint"/>
                        <mxPoint x="1180" y="1200" as="targetPoint"/>
                    </mxGeometry>
                </mxCell>
                <mxCell id="zyog96r8CnRyBwW-GgIO-34" value="non-cacheable response" style="edgeLabel;html=1;align=center;verticalAlign=middle;resizable=0;points=[];" vertex="1" connectable="0" parent="zyog96r8CnRyBwW-GgIO-33">
                    <mxGeometry x="0.1754" y="2" relative="1" as="geometry">
                        <mxPoint x="18" y="-2" as="offset"/>
                    </mxGeometry>
                </mxCell>
                <mxCell id="zyog96r8CnRyBwW-GgIO-68" value="ID == 1" style="edgeLabel;html=1;align=center;verticalAlign=middle;resizable=0;points=[];" vertex="1" connectable="0" parent="zyog96r8CnRyBwW-GgIO-33">
                    <mxGeometry x="-0.6609" relative="1" as="geometry">
                        <mxPoint as="offset"/>
                    </mxGeometry>
                </mxCell>
                <mxCell id="zyog96r8CnRyBwW-GgIO-38" value="ARB" style="rhombus;whiteSpace=wrap;html=1;" vertex="1" parent="1">
                    <mxGeometry x="830" y="1040" width="70" height="200" as="geometry"/>
                </mxCell>
                <mxCell id="zyog96r8CnRyBwW-GgIO-39" value="" style="endArrow=classic;html=1;exitX=0;exitY=0.5;exitDx=0;exitDy=0;" edge="1" parent="1" source="zyog96r8CnRyBwW-GgIO-38">
                    <mxGeometry width="50" height="50" relative="1" as="geometry">
                        <mxPoint x="670" y="1060" as="sourcePoint"/>
                        <mxPoint x="680" y="1140" as="targetPoint"/>
                    </mxGeometry>
                </mxCell>
                <mxCell id="zyog96r8CnRyBwW-GgIO-40" value="Response Port" style="edgeLabel;html=1;align=center;verticalAlign=middle;resizable=0;points=[];" vertex="1" connectable="0" parent="zyog96r8CnRyBwW-GgIO-39">
                    <mxGeometry x="-0.2472" y="-3" relative="1" as="geometry">
                        <mxPoint x="-14" y="3" as="offset"/>
                    </mxGeometry>
                </mxCell>
                <mxCell id="zyog96r8CnRyBwW-GgIO-50" value="Cache" style="rounded=1;whiteSpace=wrap;html=1;" vertex="1" parent="1">
                    <mxGeometry x="1300" y="1040" width="80" height="80" as="geometry"/>
                </mxCell>
                <mxCell id="zyog96r8CnRyBwW-GgIO-52" value="" style="group;rotation=-180;" vertex="1" connectable="0" parent="1">
                    <mxGeometry x="1040" y="1040" width="120" height="80" as="geometry"/>
                </mxCell>
                <mxCell id="zyog96r8CnRyBwW-GgIO-53" value="" style="endArrow=none;html=1;labelBackgroundColor=#282C34;strokeColor=#E05561;fontSize=17;rounded=0;" edge="1" parent="zyog96r8CnRyBwW-GgIO-52">
                    <mxGeometry width="50" height="50" relative="1" as="geometry">
                        <mxPoint x="160" as="sourcePoint"/>
                        <mxPoint x="160" y="80" as="targetPoint"/>
                        <Array as="points">
                            <mxPoint x="60"/>
                            <mxPoint x="60" y="80"/>
                        </Array>
                    </mxGeometry>
                </mxCell>
                <mxCell id="zyog96r8CnRyBwW-GgIO-54" value="" style="rounded=0;whiteSpace=wrap;html=1;labelBackgroundColor=none;strokeColor=#e05561;fontSize=17;fillColor=#21252B;rotation=-180;" vertex="1" parent="zyog96r8CnRyBwW-GgIO-52">
                    <mxGeometry x="60" width="20" height="80" as="geometry"/>
                </mxCell>
                <mxCell id="zyog96r8CnRyBwW-GgIO-55" value="" style="rounded=0;whiteSpace=wrap;html=1;labelBackgroundColor=none;strokeColor=#e05561;fontSize=17;fillColor=#21252B;rotation=-180;" vertex="1" parent="zyog96r8CnRyBwW-GgIO-52">
                    <mxGeometry x="80" width="20" height="80" as="geometry"/>
                </mxCell>
                <mxCell id="zyog96r8CnRyBwW-GgIO-56" value="" style="rounded=0;whiteSpace=wrap;html=1;labelBackgroundColor=none;strokeColor=#e05561;fontSize=17;fillColor=#21252B;rotation=-180;" vertex="1" parent="zyog96r8CnRyBwW-GgIO-52">
                    <mxGeometry x="100" width="20" height="80" as="geometry"/>
                </mxCell>
                <mxCell id="zyog96r8CnRyBwW-GgIO-57" value="" style="endArrow=classic;html=1;rounded=0;labelBackgroundColor=#282C34;strokeColor=#A5E075;fontSize=17;exitX=1;exitY=0.5;exitDx=0;exitDy=0;" edge="1" parent="zyog96r8CnRyBwW-GgIO-52" source="zyog96r8CnRyBwW-GgIO-54">
                    <mxGeometry width="50" height="50" relative="1" as="geometry">
                        <mxPoint x="40" y="40" as="sourcePoint"/>
                        <mxPoint x="-160" y="40" as="targetPoint"/>
                        <Array as="points">
                            <mxPoint x="30" y="40"/>
                        </Array>
                    </mxGeometry>
                </mxCell>
                <mxCell id="zyog96r8CnRyBwW-GgIO-58" value="" style="endArrow=classic;html=1;" edge="1" parent="1">
                    <mxGeometry width="50" height="50" relative="1" as="geometry">
                        <mxPoint x="1300" y="1079" as="sourcePoint"/>
                        <mxPoint x="1180" y="1079.4099999999999" as="targetPoint"/>
                    </mxGeometry>
                </mxCell>
                <mxCell id="zyog96r8CnRyBwW-GgIO-59" value="Cache response" style="edgeLabel;html=1;align=center;verticalAlign=middle;resizable=0;points=[];" vertex="1" connectable="0" parent="zyog96r8CnRyBwW-GgIO-58">
                    <mxGeometry x="0.1754" y="2" relative="1" as="geometry">
                        <mxPoint x="21" y="-3" as="offset"/>
                    </mxGeometry>
                </mxCell>
                <mxCell id="zyog96r8CnRyBwW-GgIO-62" value="" style="shape=trapezoid;perimeter=trapezoidPerimeter;whiteSpace=wrap;html=1;fixedSize=1;rotation=90;" vertex="1" parent="1">
                    <mxGeometry x="1390" y="1112.5" width="250" height="60" as="geometry"/>
                </mxCell>
                <mxCell id="zyog96r8CnRyBwW-GgIO-63" value="" style="endArrow=classic;html=1;exitX=0.25;exitY=1;exitDx=0;exitDy=0;" edge="1" parent="1" source="zyog96r8CnRyBwW-GgIO-62">
                    <mxGeometry width="50" height="50" relative="1" as="geometry">
                        <mxPoint x="1490" y="922.5" as="sourcePoint"/>
                        <mxPoint x="1380" y="1080.5" as="targetPoint"/>
                    </mxGeometry>
                </mxCell>
                <mxCell id="zyog96r8CnRyBwW-GgIO-67" value="ID == 0" style="edgeLabel;html=1;align=center;verticalAlign=middle;resizable=0;points=[];" vertex="1" connectable="0" parent="zyog96r8CnRyBwW-GgIO-63">
                    <mxGeometry x="-0.3765" y="-1" relative="1" as="geometry">
                        <mxPoint x="-12" y="1" as="offset"/>
                    </mxGeometry>
                </mxCell>
                <mxCell id="zyog96r8CnRyBwW-GgIO-70" value="AXI Node" style="rounded=1;whiteSpace=wrap;html=1;" vertex="1" parent="1">
                    <mxGeometry x="1728" y="1022.5" width="240" height="240" as="geometry"/>
                </mxCell>
                <mxCell id="zyog96r8CnRyBwW-GgIO-77" value="" style="endArrow=classic;html=1;" edge="1" parent="1">
                    <mxGeometry width="50" height="50" relative="1" as="geometry">
                        <mxPoint x="1728" y="1142.2" as="sourcePoint"/>
                        <mxPoint x="1548" y="1142.5" as="targetPoint"/>
                    </mxGeometry>
                </mxCell>
            </root>
        </mxGraphModel>
    </diagram>
    <diagram id="sq4KawmfHECcmshUKaD5" name="MSHRs">
        <mxGraphModel dx="1063" dy="768" grid="1" gridSize="10" guides="1" tooltips="1" connect="1" arrows="1" fold="1" page="1" pageScale="1" pageWidth="850" pageHeight="1100" math="0" shadow="0">
            <root>
                <mxCell id="0"/>
                <mxCell id="1" parent="0"/>
                <mxCell id="GajQcIybAK0v4jDkFsXc-8" value="Address" style="rounded=0;whiteSpace=wrap;html=1;" parent="1" vertex="1">
                    <mxGeometry x="190" y="280" width="90" height="20" as="geometry"/>
                </mxCell>
                <mxCell id="GajQcIybAK0v4jDkFsXc-12" value="" style="rounded=0;whiteSpace=wrap;html=1;" parent="1" vertex="1">
                    <mxGeometry x="190" y="300" width="90" height="20" as="geometry"/>
                </mxCell>
                <mxCell id="GajQcIybAK0v4jDkFsXc-13" value="" style="rounded=0;whiteSpace=wrap;html=1;" parent="1" vertex="1">
                    <mxGeometry x="190" y="320" width="90" height="20" as="geometry"/>
                </mxCell>
                <mxCell id="GajQcIybAK0v4jDkFsXc-14" value="" style="rounded=0;whiteSpace=wrap;html=1;" parent="1" vertex="1">
                    <mxGeometry x="190" y="340" width="90" height="20" as="geometry"/>
                </mxCell>
                <mxCell id="GajQcIybAK0v4jDkFsXc-31" value="" style="endArrow=none;html=1;exitX=1;exitY=0;exitDx=0;exitDy=0;entryX=0;entryY=0;entryDx=0;entryDy=0;" parent="1" target="GajQcIybAK0v4jDkFsXc-33" edge="1">
                    <mxGeometry width="50" height="50" relative="1" as="geometry">
                        <mxPoint x="920" y="280" as="sourcePoint"/>
                        <mxPoint x="1040" y="200" as="targetPoint"/>
                    </mxGeometry>
                </mxCell>
                <mxCell id="GajQcIybAK0v4jDkFsXc-32" value="" style="endArrow=none;html=1;exitX=1;exitY=0;exitDx=0;exitDy=0;entryX=0;entryY=1;entryDx=0;entryDy=0;" parent="1" target="GajQcIybAK0v4jDkFsXc-37" edge="1">
                    <mxGeometry width="50" height="50" relative="1" as="geometry">
                        <mxPoint x="920" y="300" as="sourcePoint"/>
                        <mxPoint x="1040" y="380" as="targetPoint"/>
                    </mxGeometry>
                </mxCell>
                <mxCell id="GajQcIybAK0v4jDkFsXc-33" value="get_front: Request" style="rounded=0;whiteSpace=wrap;html=1;" parent="1" vertex="1">
                    <mxGeometry x="1000" y="200" width="200" height="20" as="geometry"/>
                </mxCell>
                <mxCell id="GajQcIybAK0v4jDkFsXc-34" value="queue: Bool" style="rounded=0;whiteSpace=wrap;html=1;" parent="1" vertex="1">
                    <mxGeometry x="1000" y="240" width="200" height="20" as="geometry"/>
                </mxCell>
                <mxCell id="GajQcIybAK0v4jDkFsXc-35" value="dequeue: Bool" style="rounded=0;whiteSpace=wrap;html=1;" parent="1" vertex="1">
                    <mxGeometry x="1000" y="280" width="200" height="20" as="geometry"/>
                </mxCell>
                <mxCell id="GajQcIybAK0v4jDkFsXc-36" value="full: Bool" style="rounded=0;whiteSpace=wrap;html=1;" parent="1" vertex="1">
                    <mxGeometry x="1000" y="320" width="200" height="20" as="geometry"/>
                </mxCell>
                <mxCell id="GajQcIybAK0v4jDkFsXc-37" value="empty: Bool" style="rounded=0;whiteSpace=wrap;html=1;" parent="1" vertex="1">
                    <mxGeometry x="1000" y="360" width="200" height="20" as="geometry"/>
                </mxCell>
                <mxCell id="GajQcIybAK0v4jDkFsXc-41" value="MSHR entry utils" style="text;html=1;strokeColor=none;fillColor=none;align=center;verticalAlign=middle;whiteSpace=wrap;rounded=0;" parent="1" vertex="1">
                    <mxGeometry x="1070" y="150" width="60" height="30" as="geometry"/>
                </mxCell>
                <mxCell id="GajQcIybAK0v4jDkFsXc-42" value="MSHR" style="rounded=0;whiteSpace=wrap;html=1;" parent="1" vertex="1">
                    <mxGeometry x="280" y="490" width="640" height="80" as="geometry"/>
                </mxCell>
                <mxCell id="GajQcIybAK0v4jDkFsXc-43" value="" style="endArrow=none;html=1;exitX=1;exitY=0;exitDx=0;exitDy=0;entryX=0;entryY=0;entryDx=0;entryDy=0;" parent="1" source="GajQcIybAK0v4jDkFsXc-42" target="GajQcIybAK0v4jDkFsXc-45" edge="1">
                    <mxGeometry width="50" height="50" relative="1" as="geometry">
                        <mxPoint x="970" y="410" as="sourcePoint"/>
                        <mxPoint x="1040" y="410" as="targetPoint"/>
                    </mxGeometry>
                </mxCell>
                <mxCell id="GajQcIybAK0v4jDkFsXc-44" value="" style="endArrow=none;html=1;exitX=1;exitY=1;exitDx=0;exitDy=0;entryX=0;entryY=1;entryDx=0;entryDy=0;" parent="1" source="GajQcIybAK0v4jDkFsXc-42" target="GajQcIybAK0v4jDkFsXc-49" edge="1">
                    <mxGeometry width="50" height="50" relative="1" as="geometry">
                        <mxPoint x="1040" y="600" as="sourcePoint"/>
                        <mxPoint x="1040" y="650" as="targetPoint"/>
                    </mxGeometry>
                </mxCell>
                <mxCell id="GajQcIybAK0v4jDkFsXc-45" value="get_front: MSHR_entry" style="rounded=0;whiteSpace=wrap;html=1;" parent="1" vertex="1">
                    <mxGeometry x="1000" y="440" width="200" height="20" as="geometry"/>
                </mxCell>
                <mxCell id="GajQcIybAK0v4jDkFsXc-46" value="queue: Bool" style="rounded=0;whiteSpace=wrap;html=1;" parent="1" vertex="1">
                    <mxGeometry x="1000" y="480" width="200" height="20" as="geometry"/>
                </mxCell>
                <mxCell id="GajQcIybAK0v4jDkFsXc-47" value="dequeue: Bool" style="rounded=0;whiteSpace=wrap;html=1;" parent="1" vertex="1">
                    <mxGeometry x="1000" y="520" width="200" height="20" as="geometry"/>
                </mxCell>
                <mxCell id="GajQcIybAK0v4jDkFsXc-48" value="full: Bool" style="rounded=0;whiteSpace=wrap;html=1;" parent="1" vertex="1">
                    <mxGeometry x="1000" y="560" width="200" height="20" as="geometry"/>
                </mxCell>
                <mxCell id="GajQcIybAK0v4jDkFsXc-49" value="empty: Bool" style="rounded=0;whiteSpace=wrap;html=1;" parent="1" vertex="1">
                    <mxGeometry x="1000" y="600" width="200" height="20" as="geometry"/>
                </mxCell>
                <mxCell id="GajQcIybAK0v4jDkFsXc-51" value="MSHR entry" style="rounded=0;whiteSpace=wrap;html=1;" parent="1" vertex="1">
                    <mxGeometry x="280" y="300" width="640" height="20" as="geometry"/>
                </mxCell>
                <mxCell id="GajQcIybAK0v4jDkFsXc-52" value="Byte Offset" style="rounded=0;whiteSpace=wrap;html=1;" parent="1" vertex="1">
                    <mxGeometry x="280" y="280" width="80" height="20" as="geometry"/>
                </mxCell>
                <mxCell id="GajQcIybAK0v4jDkFsXc-53" value="Mem type" style="rounded=0;whiteSpace=wrap;html=1;" parent="1" vertex="1">
                    <mxGeometry x="360" y="280" width="80" height="20" as="geometry"/>
                </mxCell>
                <mxCell id="GajQcIybAK0v4jDkFsXc-54" value="access width" style="rounded=0;whiteSpace=wrap;html=1;" parent="1" vertex="1">
                    <mxGeometry x="440" y="280" width="80" height="20" as="geometry"/>
                </mxCell>
                <mxCell id="GajQcIybAK0v4jDkFsXc-55" value="data" style="rounded=0;whiteSpace=wrap;html=1;" parent="1" vertex="1">
                    <mxGeometry x="520" y="280" width="80" height="20" as="geometry"/>
                </mxCell>
                <mxCell id="GajQcIybAK0v4jDkFsXc-57" value="Byte Offset" style="rounded=0;whiteSpace=wrap;html=1;" parent="1" vertex="1">
                    <mxGeometry x="600" y="280" width="80" height="20" as="geometry"/>
                </mxCell>
                <mxCell id="GajQcIybAK0v4jDkFsXc-58" value="Mem type" style="rounded=0;whiteSpace=wrap;html=1;" parent="1" vertex="1">
                    <mxGeometry x="680" y="280" width="80" height="20" as="geometry"/>
                </mxCell>
                <mxCell id="GajQcIybAK0v4jDkFsXc-59" value="access width" style="rounded=0;whiteSpace=wrap;html=1;" parent="1" vertex="1">
                    <mxGeometry x="760" y="280" width="80" height="20" as="geometry"/>
                </mxCell>
                <mxCell id="GajQcIybAK0v4jDkFsXc-60" value="data" style="rounded=0;whiteSpace=wrap;html=1;" parent="1" vertex="1">
                    <mxGeometry x="840" y="280" width="80" height="20" as="geometry"/>
                </mxCell>
                <mxCell id="GajQcIybAK0v4jDkFsXc-61" value="" style="shape=curlyBracket;whiteSpace=wrap;html=1;rounded=1;flipH=1;labelPosition=right;verticalLabelPosition=middle;align=left;verticalAlign=middle;rotation=-90;" parent="1" vertex="1">
                    <mxGeometry x="430" y="90" width="20" height="320" as="geometry"/>
                </mxCell>
                <mxCell id="GajQcIybAK0v4jDkFsXc-62" value="" style="shape=curlyBracket;whiteSpace=wrap;html=1;rounded=1;flipH=1;labelPosition=right;verticalLabelPosition=middle;align=left;verticalAlign=middle;rotation=-90;" parent="1" vertex="1">
                    <mxGeometry x="750" y="90" width="20" height="320" as="geometry"/>
                </mxCell>
                <mxCell id="GajQcIybAK0v4jDkFsXc-63" value="MSHR entry" style="rounded=0;whiteSpace=wrap;html=1;" parent="1" vertex="1">
                    <mxGeometry x="280" y="320" width="640" height="20" as="geometry"/>
                </mxCell>
                <mxCell id="GajQcIybAK0v4jDkFsXc-64" value="MSHR entry" style="rounded=0;whiteSpace=wrap;html=1;" parent="1" vertex="1">
                    <mxGeometry x="280" y="340" width="640" height="20" as="geometry"/>
                </mxCell>
                <mxCell id="GajQcIybAK0v4jDkFsXc-65" value="Entry 0" style="text;html=1;strokeColor=none;fillColor=none;align=center;verticalAlign=middle;whiteSpace=wrap;rounded=0;" parent="1" vertex="1">
                    <mxGeometry x="410" y="210" width="60" height="30" as="geometry"/>
                </mxCell>
                <mxCell id="GajQcIybAK0v4jDkFsXc-66" value="Entry 1" style="text;html=1;strokeColor=none;fillColor=none;align=center;verticalAlign=middle;whiteSpace=wrap;rounded=0;" parent="1" vertex="1">
                    <mxGeometry x="730" y="210" width="60" height="30" as="geometry"/>
                </mxCell>
                <mxCell id="GajQcIybAK0v4jDkFsXc-67" value="Miss" style="rounded=0;whiteSpace=wrap;html=1;" parent="1" vertex="1">
                    <mxGeometry x="280" y="690" width="120" height="40" as="geometry"/>
                </mxCell>
                <mxCell id="GajQcIybAK0v4jDkFsXc-68" value="" style="endArrow=classic;html=1;exitX=1;exitY=0.5;exitDx=0;exitDy=0;" parent="1" source="GajQcIybAK0v4jDkFsXc-67" edge="1">
                    <mxGeometry width="50" height="50" relative="1" as="geometry">
                        <mxPoint x="440" y="720" as="sourcePoint"/>
                        <mxPoint x="490" y="710" as="targetPoint"/>
                    </mxGeometry>
                </mxCell>
                <mxCell id="GajQcIybAK0v4jDkFsXc-69" value="Queue to MSHR" style="rounded=0;whiteSpace=wrap;html=1;" parent="1" vertex="1">
                    <mxGeometry x="490" y="690" width="120" height="40" as="geometry"/>
                </mxCell>
                <mxCell id="GajQcIybAK0v4jDkFsXc-72" value="(Either completely new entry or to existing row)" style="rounded=0;whiteSpace=wrap;html=1;" parent="1" vertex="1">
                    <mxGeometry x="490" y="740" width="120" height="60" as="geometry"/>
                </mxCell>
                <mxCell id="GajQcIybAK0v4jDkFsXc-75" value="Response" style="rounded=0;whiteSpace=wrap;html=1;" parent="1" vertex="1">
                    <mxGeometry x="280" y="870" width="120" height="40" as="geometry"/>
                </mxCell>
                <mxCell id="GajQcIybAK0v4jDkFsXc-76" value="" style="endArrow=classic;html=1;exitX=1;exitY=0.5;exitDx=0;exitDy=0;entryX=0;entryY=0.5;entryDx=0;entryDy=0;" parent="1" source="GajQcIybAK0v4jDkFsXc-75" edge="1">
                    <mxGeometry width="50" height="50" relative="1" as="geometry">
                        <mxPoint x="450" y="900" as="sourcePoint"/>
                        <mxPoint x="490" y="890" as="targetPoint"/>
                    </mxGeometry>
                </mxCell>
                <mxCell id="GajQcIybAK0v4jDkFsXc-80" value="ID == cacheable?" style="rounded=0;whiteSpace=wrap;html=1;" parent="1" vertex="1">
                    <mxGeometry x="490" y="850" width="120" height="80" as="geometry"/>
                </mxCell>
                <mxCell id="GajQcIybAK0v4jDkFsXc-84" value="yes" style="endArrow=classic;html=1;exitX=1;exitY=0.5;exitDx=0;exitDy=0;" parent="1" source="GajQcIybAK0v4jDkFsXc-80" edge="1">
                    <mxGeometry width="50" height="50" relative="1" as="geometry">
                        <mxPoint x="460" y="1110" as="sourcePoint"/>
                        <mxPoint x="750" y="830" as="targetPoint"/>
                        <Array as="points">
                            <mxPoint x="670" y="890"/>
                            <mxPoint x="670" y="830"/>
                        </Array>
                    </mxGeometry>
                </mxCell>
                <mxCell id="GajQcIybAK0v4jDkFsXc-85" value="no" style="endArrow=classic;html=1;exitX=1;exitY=0.5;exitDx=0;exitDy=0;" parent="1" source="GajQcIybAK0v4jDkFsXc-80" edge="1">
                    <mxGeometry width="50" height="50" relative="1" as="geometry">
                        <mxPoint x="700" y="970" as="sourcePoint"/>
                        <mxPoint x="750" y="950" as="targetPoint"/>
                        <Array as="points">
                            <mxPoint x="670" y="890"/>
                            <mxPoint x="670" y="950"/>
                        </Array>
                        <mxPoint as="offset"/>
                    </mxGeometry>
                </mxCell>
                <mxCell id="GajQcIybAK0v4jDkFsXc-86" value="Replay entire front MSHR entry" style="rounded=0;whiteSpace=wrap;html=1;" parent="1" vertex="1">
                    <mxGeometry x="750" y="810" width="120" height="40" as="geometry"/>
                </mxCell>
                <mxCell id="GajQcIybAK0v4jDkFsXc-87" value="Let non cacheable buffer handle response" style="rounded=0;whiteSpace=wrap;html=1;" parent="1" vertex="1">
                    <mxGeometry x="750" y="920" width="120" height="60" as="geometry"/>
                </mxCell>
            </root>
        </mxGraphModel>
    </diagram>
    <diagram id="5bz_MyOMHf_wu1o7_MpR" name="AXI-Node">
        <mxGraphModel dx="1063" dy="768" grid="1" gridSize="10" guides="1" tooltips="1" connect="1" arrows="1" fold="1" page="1" pageScale="1" pageWidth="850" pageHeight="1100" math="0" shadow="0">
            <root>
                <mxCell id="0"/>
                <mxCell id="1" parent="0"/>
                <mxCell id="D_iOZjVLaneXX4lkG1yx-1" value="" style="ellipse;whiteSpace=wrap;html=1;aspect=fixed;rounded=0;labelBackgroundColor=#21252B;strokeColor=#e05561;fontSize=17;fillColor=#21252B;" parent="1" vertex="1">
                    <mxGeometry x="280" y="240" width="80" height="80" as="geometry"/>
                </mxCell>
                <mxCell id="D_iOZjVLaneXX4lkG1yx-2" value="" style="ellipse;whiteSpace=wrap;html=1;aspect=fixed;rounded=0;labelBackgroundColor=#21252B;strokeColor=#e05561;fontSize=17;fillColor=#21252B;" parent="1" vertex="1">
                    <mxGeometry x="560" y="240" width="80" height="80" as="geometry"/>
                </mxCell>
                <mxCell id="D_iOZjVLaneXX4lkG1yx-3" value="Text" style="text;html=1;strokeColor=none;fillColor=none;align=center;verticalAlign=middle;whiteSpace=wrap;rounded=0;labelBackgroundColor=#21252B;fontSize=17;" parent="1" vertex="1">
                    <mxGeometry x="80" y="160" width="120" height="80" as="geometry"/>
                </mxCell>
            </root>
        </mxGraphModel>
    </diagram>
</mxfile>